<svg width="960" height="913" viewBox="0 0 960 913" fill="none" xmlns="http://www.w3.org/2000/svg">
<g filter="url(#filter0_f_11605_24)">
<path d="M480 4L592.257 349.492H955.528L661.636 563.017L773.893 908.508L480 694.983L186.107 908.508L298.364 563.017L4.47174 349.492H367.743L480 4Z" fill="#020202"/>
<path d="M480 6.95527L591.388 349.774L591.594 350.405H592.257H952.718L661.099 562.278L660.562 562.668L660.767 563.299L772.156 906.118L480.537 694.244L480 693.854L479.463 694.244L187.844 906.118L299.233 563.299L299.438 562.668L298.901 562.278L7.2824 350.405H367.743H368.407L368.612 349.774L480 6.95527Z" stroke="url(#paint0_linear_11605_24)" stroke-width="1.82646"/>
</g>
<defs>
<filter id="filter0_f_11605_24" x="0.819728" y="0.347072" width="958.361" height="911.815" filterUnits="userSpaceOnUse" color-interpolation-filters="sRGB">
<feFlood flood-opacity="0" result="BackgroundImageFix"/>
<feBlend mode="normal" in="SourceGraphic" in2="BackgroundImageFix" result="shape"/>
<feGaussianBlur stdDeviation="1.82646" result="effect1_foregroundBlur_11605_24"/>
</filter>
<linearGradient id="paint0_linear_11605_24" x1="529.892" y1="4.00003" x2="446.301" y2="1005.35" gradientUnits="userSpaceOnUse">
<stop stop-color="#034CFF"/>
<stop offset="1" stop-color="#034CFF" stop-opacity="0.1"/>
</linearGradient>
</defs>
</svg>
