<svg width="1440" height="782" viewBox="0 0 1440 782" fill="none" xmlns="http://www.w3.org/2000/svg">
<g clip-path="url(#clip0_2116_98)">
<rect width="1440" height="782" fill="#F6F6F6" fill-opacity="0.02"/>
<path d="M1425.57 -32L1255.52 109.705L1623.95 400.2V442.711L1255.52 740.291L1425.57 881.996L1666.47 683.609V173.472L1425.57 -32Z" fill="url(#paint0_linear_2116_98)" fill-opacity="0.05"/>
<path d="M993.361 -32L1163.41 109.705L794.974 400.2V442.711L1163.41 740.291L993.361 881.996L752.463 683.609V173.472L993.361 -32Z" fill="url(#paint1_linear_2116_98)" fill-opacity="0.05"/>
<path d="M1515.1 -32L1345.06 109.705L1713.49 400.2V442.711L1345.06 740.291L1515.1 881.996L1756 683.609V173.472L1515.1 -32Z" stroke="url(#paint2_radial_2116_98)"/>
<path d="M1082.9 -32L1252.94 109.705L884.511 400.2V442.711L1252.94 740.291L1082.9 881.996L842 683.609V173.472L1082.9 -32Z" stroke="url(#paint3_radial_2116_98)"/>
<g filter="url(#filter0_d_2116_98)">
<ellipse cx="125.5" cy="1019" rx="91.5" ry="79" fill="#4B3CFF"/>
</g>
<g filter="url(#filter1_d_2116_98)">
<ellipse cx="1276.5" cy="-454" rx="91.5" ry="79" fill="#4B3CFF"/>
</g>
</g>
<defs>
<filter id="filter0_d_2116_98" x="-590" y="316" width="1431" height="1406" filterUnits="userSpaceOnUse" color-interpolation-filters="sRGB">
<feFlood flood-opacity="0" result="BackgroundImageFix"/>
<feColorMatrix in="SourceAlpha" type="matrix" values="0 0 0 0 0 0 0 0 0 0 0 0 0 0 0 0 0 0 127 0" result="hardAlpha"/>
<feMorphology radius="374" operator="dilate" in="SourceAlpha" result="effect1_dropShadow_2116_98"/>
<feOffset/>
<feGaussianBlur stdDeviation="125"/>
<feComposite in2="hardAlpha" operator="out"/>
<feColorMatrix type="matrix" values="0 0 0 0 0.294118 0 0 0 0 0.235294 0 0 0 0 1 0 0 0 0.3 0"/>
<feBlend mode="normal" in2="BackgroundImageFix" result="effect1_dropShadow_2116_98"/>
<feBlend mode="normal" in="SourceGraphic" in2="effect1_dropShadow_2116_98" result="shape"/>
</filter>
<filter id="filter1_d_2116_98" x="561" y="-1157" width="1431" height="1406" filterUnits="userSpaceOnUse" color-interpolation-filters="sRGB">
<feFlood flood-opacity="0" result="BackgroundImageFix"/>
<feColorMatrix in="SourceAlpha" type="matrix" values="0 0 0 0 0 0 0 0 0 0 0 0 0 0 0 0 0 0 127 0" result="hardAlpha"/>
<feMorphology radius="374" operator="dilate" in="SourceAlpha" result="effect1_dropShadow_2116_98"/>
<feOffset/>
<feGaussianBlur stdDeviation="125"/>
<feComposite in2="hardAlpha" operator="out"/>
<feColorMatrix type="matrix" values="0 0 0 0 0.294118 0 0 0 0 0.235294 0 0 0 0 1 0 0 0 0.3 0"/>
<feBlend mode="normal" in2="BackgroundImageFix" result="effect1_dropShadow_2116_98"/>
<feBlend mode="normal" in="SourceGraphic" in2="effect1_dropShadow_2116_98" result="shape"/>
</filter>
<linearGradient id="paint0_linear_2116_98" x1="1327.48" y1="-29" x2="1931.08" y2="396.258" gradientUnits="userSpaceOnUse">
<stop stop-color="white" stop-opacity="0.8"/>
<stop offset="0.47" stop-color="white"/>
<stop offset="0.87" stop-color="white" stop-opacity="0.1"/>
</linearGradient>
<linearGradient id="paint1_linear_2116_98" x1="1091.45" y1="-29" x2="487.847" y2="396.258" gradientUnits="userSpaceOnUse">
<stop stop-color="white" stop-opacity="0.8"/>
<stop offset="0.47" stop-color="white"/>
<stop offset="0.87" stop-color="white" stop-opacity="0.1"/>
</linearGradient>
<radialGradient id="paint2_radial_2116_98" cx="0" cy="0" r="1" gradientUnits="userSpaceOnUse" gradientTransform="translate(1550.53 424.998) rotate(90) scale(456.998 205.472)">
<stop stop-color="#4B3CFF"/>
<stop offset="1" stop-color="#4B3CFF" stop-opacity="0.1"/>
</radialGradient>
<radialGradient id="paint3_radial_2116_98" cx="0" cy="0" r="1" gradientUnits="userSpaceOnUse" gradientTransform="translate(1047.47 424.998) rotate(90) scale(456.998 205.472)">
<stop stop-color="#4B3CFF"/>
<stop offset="1" stop-color="#4B3CFF" stop-opacity="0.1"/>
</radialGradient>
<clipPath id="clip0_2116_98">
<rect width="1440" height="782" fill="white"/>
</clipPath>
</defs>
</svg>
