<svg width="36" height="36" viewBox="0 0 36 36" fill="none" xmlns="http://www.w3.org/2000/svg">
<rect x="0.5" y="0.5" width="35" height="35" rx="7.5" stroke="#E6E4ED" stroke-opacity="0.1"/>
<path d="M26.5329 19.8672V19.8594C26.5315 19.8535 26.5297 19.8478 26.5274 19.8422C26.4756 19.7007 26.4153 19.5624 26.347 19.4281L23.0993 12.0469C23.068 11.9758 23.0238 11.9111 22.9688 11.8563C22.7367 11.624 22.4611 11.4398 22.1577 11.3142C21.8544 11.1885 21.5292 11.1238 21.2009 11.1238C20.8725 11.1238 20.5474 11.1885 20.244 11.3142C19.9407 11.4398 19.6651 11.624 19.4329 11.8563C19.3161 11.9732 19.2504 12.1316 19.2501 12.2969V14.25H16.7501V12.2969C16.7502 12.2148 16.734 12.1335 16.7027 12.0576C16.6713 11.9817 16.6253 11.9128 16.5673 11.8547C16.3351 11.6225 16.0595 11.4383 15.7561 11.3126C15.4528 11.1869 15.1277 11.1223 14.7993 11.1223C14.471 11.1223 14.1458 11.1869 13.8425 11.3126C13.5391 11.4383 13.2635 11.6225 13.0313 11.8547C12.9764 11.9096 12.9321 11.9742 12.9009 12.0453L9.65634 19.4281C9.58799 19.5624 9.52773 19.7007 9.47587 19.8422C9.47369 19.8475 9.47187 19.853 9.4704 19.8586C9.4704 19.8586 9.4704 19.8648 9.4704 19.8672C9.14773 20.7995 9.20546 21.8214 9.63107 22.7114C10.0567 23.6015 10.8159 24.2879 11.7441 24.6221C12.6724 24.9562 13.6949 24.911 14.5902 24.4964C15.4854 24.0818 16.1811 23.3311 16.5266 22.407C16.6788 21.992 16.7555 21.553 16.7532 21.1109V15.5H19.2532V21.1117C19.2509 21.5538 19.3276 21.9927 19.4798 22.4078C19.8253 23.3319 20.5211 24.0826 21.4163 24.4972C22.3115 24.9118 23.334 24.957 24.2623 24.6228C25.1905 24.2887 25.9497 23.6023 26.3754 22.7122C26.801 21.8222 26.8587 20.8003 26.536 19.868L26.5329 19.8672ZM15.3493 21.9766C15.1185 22.5924 14.6544 23.0925 14.0574 23.3684C13.4605 23.6444 12.7788 23.6741 12.1602 23.451C11.5416 23.2279 11.0357 22.77 10.7523 22.1765C10.4689 21.5831 10.4308 20.9018 10.6462 20.2805L10.7876 19.9578C11.0475 19.4638 11.4653 19.071 11.9743 18.8419C12.4834 18.6129 13.0545 18.5608 13.5966 18.694C14.1387 18.8272 14.6206 19.138 14.9656 19.5768C15.3106 20.0157 15.4987 20.5574 15.5001 21.1156V21.125C15.5 21.4165 15.449 21.7058 15.3493 21.9797V21.9766ZM23.8595 23.4742C23.4816 23.6126 23.0758 23.6576 22.6768 23.6056C22.2778 23.5535 21.8972 23.4059 21.5674 23.1753C21.2376 22.9447 20.9684 22.6379 20.7825 22.2809C20.5967 21.924 20.4998 21.5274 20.5001 21.125V21.1164C20.5022 20.5585 20.6908 20.0172 21.036 19.5789C21.3812 19.1405 21.8632 18.8303 22.4051 18.6975C22.947 18.5647 23.5178 18.617 24.0266 18.8461C24.5353 19.0752 24.9528 19.4679 25.2126 19.9617L25.354 20.2844C25.5763 20.9057 25.5439 21.5897 25.264 22.1872C24.984 22.7848 24.4791 23.2474 23.8595 23.4742Z" fill="#E6E4ED"/>
</svg>
