<svg width="18" height="19" viewBox="0 0 18 19" fill="none" xmlns="http://www.w3.org/2000/svg">
<path d="M9 2.1875C7.55373 2.1875 6.13993 2.61637 4.9374 3.41988C3.73486 4.22339 2.7976 5.36544 2.24413 6.70163C1.69067 8.03781 1.54586 9.50811 1.82801 10.9266C2.11017 12.3451 2.80661 13.648 3.82928 14.6707C4.85196 15.6934 6.15492 16.3898 7.57341 16.672C8.99189 16.9541 10.4622 16.8093 11.7984 16.2559C13.1346 15.7024 14.2766 14.7651 15.0801 13.5626C15.8836 12.3601 16.3125 10.9463 16.3125 9.5C16.3105 7.56123 15.5394 5.70246 14.1685 4.33154C12.7975 2.96063 10.9388 2.18955 9 2.1875ZM12.2105 8.21047L8.27297 12.148C8.22073 12.2003 8.15869 12.2418 8.09041 12.2701C8.02212 12.2984 7.94892 12.3129 7.875 12.3129C7.80108 12.3129 7.72789 12.2984 7.6596 12.2701C7.59131 12.2418 7.52928 12.2003 7.47703 12.148L5.78953 10.4605C5.68399 10.3549 5.62469 10.2118 5.62469 10.0625C5.62469 9.91323 5.68399 9.77008 5.78953 9.66453C5.89508 9.55898 6.03824 9.49969 6.1875 9.49969C6.33677 9.49969 6.47992 9.55898 6.58547 9.66453L7.875 10.9548L11.4145 7.41453C11.4668 7.36227 11.5288 7.32081 11.5971 7.29253C11.6654 7.26424 11.7386 7.24969 11.8125 7.24969C11.8864 7.24969 11.9596 7.26424 12.0279 7.29253C12.0962 7.32081 12.1582 7.36227 12.2105 7.41453C12.2627 7.46679 12.3042 7.52884 12.3325 7.59712C12.3608 7.6654 12.3753 7.73859 12.3753 7.8125C12.3753 7.88641 12.3608 7.9596 12.3325 8.02788C12.3042 8.09616 12.2627 8.15821 12.2105 8.21047Z" fill="#6154F9"/>
</svg>
