<svg width="16" height="17" viewBox="0 0 16 17" fill="none" xmlns="http://www.w3.org/2000/svg">
<path d="M15.4038 5.07323C15.254 4.94197 15.0685 4.85841 14.871 4.83324C14.6735 4.80808 14.4729 4.84246 14.295 4.93198L11.3638 6.39323L8.86379 2.23761C8.77423 2.08892 8.64775 1.96591 8.49662 1.88051C8.3455 1.79512 8.17487 1.75024 8.00129 1.75024C7.82771 1.75024 7.65707 1.79512 7.50595 1.88051C7.35483 1.96591 7.22835 2.08892 7.13879 2.23761L4.63879 6.39323L1.70691 4.93261C1.52922 4.84384 1.32924 4.80965 1.13215 4.83434C0.935064 4.85903 0.749692 4.9415 0.599389 5.07135C0.449086 5.2012 0.340576 5.37263 0.287527 5.56404C0.234479 5.75546 0.239267 5.95829 0.301287 6.14698L2.61379 13.2314C2.64862 13.3381 2.70696 13.4356 2.78452 13.5168C2.86208 13.598 2.95687 13.6607 3.06191 13.7004C3.16694 13.74 3.27954 13.7556 3.39139 13.7459C3.50324 13.7362 3.61149 13.7016 3.70816 13.6445C3.72316 13.6357 5.27441 12.7501 8.00004 12.7501C10.7257 12.7501 12.2769 13.637 12.2888 13.6439C12.3855 13.7017 12.4939 13.737 12.6061 13.7472C12.7183 13.7573 12.8314 13.7421 12.9369 13.7026C13.0424 13.6631 13.1376 13.6003 13.2155 13.519C13.2934 13.4376 13.352 13.3397 13.3869 13.2326L15.6994 6.15198C15.7632 5.96319 15.7692 5.75962 15.7165 5.56741C15.6639 5.3752 15.5549 5.20312 15.4038 5.07323ZM12.2207 11.9701C11.3863 11.6501 9.95004 11.2501 8.00004 11.2501C6.05004 11.2501 4.61379 11.6514 3.77941 11.9714L2.09191 6.80198L4.37504 7.93761C4.60191 8.04973 4.86259 8.07271 5.10558 8.00201C5.34857 7.93131 5.55623 7.77207 5.68754 7.55573L8.00004 3.71261L10.3125 7.55636C10.4439 7.77259 10.6516 7.9317 10.8946 8.00228C11.1376 8.07286 11.3982 8.04979 11.625 7.93761L13.9075 6.80011L12.2207 11.9701ZM10.9913 10.0326C10.964 10.2096 10.8742 10.371 10.7383 10.4876C10.6023 10.6042 10.4291 10.6682 10.25 10.6682C10.2113 10.6681 10.1727 10.6652 10.1344 10.6595C8.71865 10.4461 7.27892 10.4461 5.86316 10.6595C5.66657 10.6898 5.46598 10.6408 5.30552 10.5233C5.14506 10.4057 5.03787 10.2292 5.00754 10.0326C4.9772 9.83602 5.02621 9.63543 5.14377 9.47497C5.26133 9.31451 5.43782 9.20732 5.63441 9.17698C7.20178 8.94032 8.7958 8.94032 10.3632 9.17698C10.4606 9.19185 10.5542 9.22579 10.6385 9.27685C10.7228 9.32792 10.7963 9.3951 10.8546 9.47457C10.913 9.55404 10.9551 9.64423 10.9785 9.73999C11.002 9.83574 11.0063 9.93518 10.9913 10.0326Z" fill="#4B3CFF"/>
</svg>
