<svg width="44" height="44" viewBox="0 0 44 44" fill="none" xmlns="http://www.w3.org/2000/svg">
<rect width="44" height="44" rx="8" fill="#1C90FF" fill-opacity="0.1"/>
<path d="M22.9142 11.8826C22.6551 11.8598 22.3942 11.8912 22.148 11.9747C21.9017 12.0582 21.6755 12.192 21.4837 12.3676C21.292 12.5433 21.1388 12.7569 21.0341 12.9949C20.9293 13.2328 20.8752 13.49 20.8751 13.7501V17.5629C20.8721 18.0056 21.0272 18.4349 21.3125 18.7734C21.5978 19.112 21.9945 19.3376 22.4314 19.4097C23.0998 19.5178 23.7006 19.8799 24.1084 20.4205C24.5161 20.9611 24.6991 21.6384 24.6192 22.3108C24.5394 22.9832 24.2028 23.5987 23.6797 24.0287C23.1567 24.4588 22.4878 24.6701 21.8126 24.6185C21.1757 24.5678 20.5785 24.289 20.1307 23.8333C19.6829 23.3775 19.4146 22.7755 19.3751 22.1379C19.3404 21.4554 19.4745 20.8957 19.7754 20.4757C20.0324 20.1164 20.1534 19.6774 20.1169 19.2371C20.0803 18.7969 19.8885 18.3839 19.5757 18.0719L16.9948 15.4319L16.9864 15.4235C16.8019 15.2392 16.5811 15.0955 16.3379 15.0014C16.0948 14.9073 15.8347 14.8649 15.5743 14.877C15.3138 14.8891 15.0588 14.9553 14.8254 15.0716C14.592 15.1878 14.3855 15.3514 14.2189 15.5519C12.5958 17.4971 11.7639 19.9816 11.8884 22.5119C12.013 25.0422 13.0848 27.4331 14.8911 29.2094C16.7811 31.0845 19.3378 32.1331 22.0001 32.1251H22.1454C24.7784 32.08 27.291 31.0138 29.1529 29.1515C31.0148 27.2893 32.0805 24.7765 32.1251 22.1435C32.1973 16.8588 28.152 12.3513 22.9142 11.8826ZM15.6898 17.3126L17.7701 19.4369C17.5073 19.8814 17.3233 20.3679 17.2264 20.8751H14.2067C14.3914 19.5811 14.9017 18.3553 15.6898 17.3126ZM14.2057 23.1251H17.2554C17.464 24.0045 17.913 24.8087 18.5522 25.4477C19.1913 26.0867 19.9956 26.5355 20.8751 26.7438V29.7954C19.1924 29.5525 17.6334 28.7715 16.4313 27.5692C15.2291 26.3669 14.4484 24.8078 14.2057 23.1251ZM23.1251 29.7916V26.7457C23.9493 26.5509 24.7077 26.1429 25.3245 25.5626C25.9692 24.9609 26.4387 24.1956 26.6829 23.3483C26.927 22.5009 26.9368 21.6032 26.7111 20.7507C26.4854 19.8982 26.0327 19.1229 25.4012 18.5074C24.7697 17.8919 23.9831 17.4592 23.1251 17.2554V14.1719C26.9961 14.7279 29.9295 18.1376 29.8751 22.1126C29.8207 25.9901 26.8751 29.2422 23.1251 29.7916Z" fill="#1C90FF"/>
</svg>
