<svg width="44" height="44" viewBox="0 0 44 44" fill="none" xmlns="http://www.w3.org/2000/svg">
<rect width="44" height="44" rx="8" fill="#FFB31C" fill-opacity="0.1"/>
<path d="M32.4999 15.25V21.25C32.5 21.3984 32.4561 21.5435 32.3737 21.667C32.2913 21.7904 32.1741 21.8867 32.037 21.9435C31.8999 22.0003 31.749 22.0151 31.6034 21.9861C31.4579 21.9572 31.3242 21.8856 31.2193 21.7806L28.7499 19.3103L23.2806 24.7806C23.2109 24.8504 23.1282 24.9057 23.0371 24.9434C22.9461 24.9812 22.8485 25.0006 22.7499 25.0006C22.6514 25.0006 22.5538 24.9812 22.4627 24.9434C22.3717 24.9057 22.289 24.8504 22.2193 24.7806L18.9999 21.5603L12.7806 27.7806C12.6398 27.9214 12.449 28.0004 12.2499 28.0004C12.0509 28.0004 11.86 27.9214 11.7193 27.7806C11.5786 27.6399 11.4995 27.449 11.4995 27.25C11.4995 27.051 11.5786 26.8601 11.7193 26.7194L18.4693 19.9694C18.539 19.8996 18.6217 19.8443 18.7127 19.8066C18.8038 19.7688 18.9014 19.7494 18.9999 19.7494C19.0985 19.7494 19.1961 19.7688 19.2871 19.8066C19.3782 19.8443 19.4609 19.8996 19.5306 19.9694L22.7499 23.1897L27.6896 18.25L25.2193 15.7806C25.1143 15.6757 25.0428 15.542 25.0138 15.3965C24.9848 15.2509 24.9996 15.1 25.0565 14.9629C25.1133 14.8258 25.2095 14.7086 25.3329 14.6262C25.4564 14.5438 25.6015 14.4999 25.7499 14.5H31.7499C31.9488 14.5 32.1396 14.579 32.2803 14.7197C32.4209 14.8603 32.4999 15.0511 32.4999 15.25Z" fill="#FFB31C"/>
</svg>
