<svg width="44" height="44" viewBox="0 0 44 44" fill="none" xmlns="http://www.w3.org/2000/svg">
<rect width="44" height="44" rx="8" fill="#1CFBFF" fill-opacity="0.1"/>
<path d="M31.75 24.625H31.375V16.75C31.375 16.0538 31.0984 15.3861 30.6062 14.8938C30.1139 14.4016 29.4462 14.125 28.75 14.125H15.25C14.5538 14.125 13.8861 14.4016 13.3938 14.8938C12.9016 15.3861 12.625 16.0538 12.625 16.75V24.625H12.25C11.9516 24.625 11.6655 24.7435 11.4545 24.9545C11.2435 25.1655 11.125 25.4516 11.125 25.75V28C11.125 28.6962 11.4016 29.3639 11.8938 29.8562C12.3861 30.3484 13.0538 30.625 13.75 30.625H30.25C30.9462 30.625 31.6139 30.3484 32.1062 29.8562C32.5984 29.3639 32.875 28.6962 32.875 28V25.75C32.875 25.4516 32.7565 25.1655 32.5455 24.9545C32.3345 24.7435 32.0484 24.625 31.75 24.625ZM14.875 16.75C14.875 16.6505 14.9145 16.5552 14.9848 16.4848C15.0552 16.4145 15.1505 16.375 15.25 16.375H28.75C28.8495 16.375 28.9448 16.4145 29.0152 16.4848C29.0855 16.5552 29.125 16.6505 29.125 16.75V24.625H14.875V16.75ZM30.625 28C30.625 28.0995 30.5855 28.1948 30.5152 28.2652C30.4448 28.3355 30.3495 28.375 30.25 28.375H13.75C13.6505 28.375 13.5552 28.3355 13.4848 28.2652C13.4145 28.1948 13.375 28.0995 13.375 28V26.875H30.625V28ZM24.625 19C24.625 19.2984 24.5065 19.5845 24.2955 19.7955C24.0845 20.0065 23.7984 20.125 23.5 20.125H20.5C20.2016 20.125 19.9155 20.0065 19.7045 19.7955C19.4935 19.5845 19.375 19.2984 19.375 19C19.375 18.7016 19.4935 18.4155 19.7045 18.2045C19.9155 17.9935 20.2016 17.875 20.5 17.875H23.5C23.7984 17.875 24.0845 17.9935 24.2955 18.2045C24.5065 18.4155 24.625 18.7016 24.625 19Z" fill="#1CFBFF"/>
</svg>
