<svg width="20" height="16" viewBox="0 0 20 16" fill="none" xmlns="http://www.w3.org/2000/svg">
<path d="M5.59995 5.59527L2.71402 7.99996L5.59995 10.4046C5.69566 10.4831 5.7749 10.5797 5.83309 10.6889C5.89128 10.7981 5.92727 10.9178 5.93899 11.0409C5.95072 11.1641 5.93794 11.2884 5.90139 11.4066C5.86484 11.5249 5.80525 11.6347 5.72605 11.7298C5.64685 11.8249 5.54961 11.9033 5.43994 11.9606C5.33027 12.0179 5.21033 12.053 5.08706 12.0637C4.96378 12.0745 4.83959 12.0607 4.72166 12.0232C4.60374 11.9857 4.4944 11.9252 4.39995 11.8453L0.649953 8.72027C0.544337 8.63229 0.459361 8.52216 0.401045 8.39768C0.342729 8.2732 0.3125 8.13742 0.3125 7.99996C0.3125 7.8625 0.342729 7.72672 0.401045 7.60224C0.459361 7.47776 0.544337 7.36763 0.649953 7.27965L4.39995 4.15465C4.59126 3.99787 4.83677 3.92304 5.083 3.94647C5.32923 3.9699 5.55623 4.08969 5.71453 4.27973C5.87284 4.46978 5.94962 4.71469 5.92816 4.9611C5.9067 5.20751 5.78873 5.43545 5.59995 5.59527ZM19.35 7.27965L15.6 4.15465C15.5055 4.07469 15.3962 4.01422 15.2782 3.97673C15.1603 3.93924 15.0361 3.92546 14.9129 3.9362C14.7896 3.94693 14.6696 3.98197 14.56 4.03929C14.4503 4.0966 14.3531 4.17506 14.2739 4.27014C14.1947 4.36522 14.1351 4.47504 14.0985 4.59327C14.062 4.71149 14.0492 4.83578 14.0609 4.95897C14.0726 5.08216 14.1086 5.20181 14.1668 5.31102C14.225 5.42023 14.3042 5.51683 14.4 5.59527L17.2859 7.99996L14.4 10.4046C14.3042 10.4831 14.225 10.5797 14.1668 10.6889C14.1086 10.7981 14.0726 10.9178 14.0609 11.0409C14.0492 11.1641 14.062 11.2884 14.0985 11.4066C14.1351 11.5249 14.1947 11.6347 14.2739 11.7298C14.3531 11.8249 14.4503 11.9033 14.56 11.9606C14.6696 12.0179 14.7896 12.053 14.9129 12.0637C15.0361 12.0745 15.1603 12.0607 15.2782 12.0232C15.3962 11.9857 15.5055 11.9252 15.6 11.8453L19.35 8.72027C19.4556 8.63229 19.5405 8.52216 19.5989 8.39768C19.6572 8.2732 19.6874 8.13742 19.6874 7.99996C19.6874 7.8625 19.6572 7.72672 19.5989 7.60224C19.5405 7.47776 19.4556 7.36763 19.35 7.27965ZM12.8203 0.243708C12.7045 0.201622 12.5817 0.182748 12.4586 0.188163C12.3356 0.193577 12.2149 0.223175 12.1033 0.275266C11.9917 0.327356 11.8915 0.400918 11.8083 0.49175C11.7252 0.582583 11.6608 0.688906 11.6187 0.804646L6.6187 14.5546C6.53395 14.7883 6.54543 15.046 6.65061 15.2711C6.7558 15.4963 6.94608 15.6705 7.17964 15.7554C7.28218 15.7933 7.39064 15.8126 7.49995 15.8125C7.69244 15.8125 7.88026 15.7533 8.03792 15.6429C8.19559 15.5324 8.31544 15.3762 8.3812 15.1953L13.3812 1.44527C13.4233 1.32954 13.4422 1.20666 13.4367 1.08364C13.4313 0.960618 13.4017 0.839868 13.3496 0.728287C13.2976 0.616707 13.224 0.516481 13.1332 0.433336C13.0423 0.350191 12.936 0.285754 12.8203 0.243708Z" fill="#6154F9"/>
</svg>
