<svg width="20" height="20" viewBox="0 0 20 20" fill="none" xmlns="http://www.w3.org/2000/svg">
<path d="M19.3369 13.6242L17.0315 4.53122C16.9708 4.2945 16.8424 4.08061 16.662 3.91576C16.4816 3.75091 16.2571 3.64225 16.0158 3.60309L13.1987 3.14059C12.8881 3.09064 12.57 3.15799 12.3064 3.32953C12.0427 3.50107 11.8523 3.76455 11.7721 4.06872L11.7557 4.13513C11.7451 4.17732 11.7434 4.22126 11.7507 4.26414C11.758 4.30702 11.7743 4.3479 11.7983 4.38416C11.8224 4.42041 11.8537 4.45125 11.8904 4.47469C11.927 4.49813 11.9682 4.51366 12.0112 4.52028C12.6576 4.61516 13.2953 4.76199 13.9182 4.95934C14.0739 5.00633 14.2059 5.11077 14.2874 5.2515C14.369 5.39223 14.3939 5.55871 14.3573 5.71716C14.3362 5.79973 14.2984 5.87712 14.2463 5.94456C14.1942 6.01201 14.1289 6.06809 14.0543 6.10936C13.9798 6.15063 13.8976 6.17621 13.8128 6.18454C13.7279 6.19287 13.6423 6.18376 13.5612 6.15778C11.2501 5.44902 8.78004 5.4463 6.46741 6.14997C6.3109 6.20259 6.14014 6.19291 5.99058 6.12293C5.84103 6.05296 5.72417 5.92806 5.66428 5.77419C5.63582 5.69523 5.62355 5.61135 5.62821 5.52755C5.63287 5.44374 5.65436 5.36174 5.69139 5.28642C5.72843 5.2111 5.78026 5.14402 5.84379 5.08916C5.90732 5.03431 5.98125 4.99282 6.06116 4.96716C6.69179 4.76629 7.33765 4.61684 7.99241 4.52028C8.03541 4.51366 8.07655 4.49813 8.1132 4.47469C8.14986 4.45125 8.18121 4.42041 8.20526 4.38416C8.22931 4.3479 8.24552 4.30702 8.25286 4.26414C8.2602 4.22126 8.2585 4.17732 8.24788 4.13513L8.23147 4.06872C8.15128 3.76429 7.96057 3.50065 7.69653 3.3292C7.4325 3.15775 7.11407 3.09079 6.80335 3.14138L3.9846 3.60388C3.74348 3.64297 3.51899 3.75152 3.33861 3.91622C3.15823 4.08092 3.02977 4.29464 2.96897 4.53122L0.663503 13.6242C0.591216 13.91 0.622677 14.2122 0.752287 14.477C0.881898 14.7418 1.10125 14.952 1.37132 15.0703L6.60569 17.3914C6.76308 17.4613 6.93312 17.4984 7.10535 17.5002C7.27759 17.5021 7.44838 17.4687 7.60723 17.4021C7.76608 17.3355 7.90964 17.2371 8.02908 17.113C8.14853 16.9889 8.24133 16.8417 8.30178 16.6804L8.57444 15.9422C8.59069 15.8979 8.59673 15.8506 8.5921 15.8037C8.58748 15.7568 8.57232 15.7116 8.54775 15.6714C8.52318 15.6312 8.48984 15.5971 8.45022 15.5716C8.41061 15.5461 8.36574 15.5299 8.31897 15.5242C7.56002 15.4323 6.81123 15.2701 6.08225 15.0398C5.92719 14.9927 5.79574 14.8885 5.71442 14.7483C5.63309 14.6082 5.60791 14.4424 5.64397 14.2843C5.66487 14.2015 5.70252 14.1239 5.75459 14.0562C5.80665 13.9885 5.87204 13.9322 5.94671 13.8908C6.02139 13.8494 6.10376 13.8237 6.18874 13.8153C6.27373 13.8069 6.35953 13.8161 6.44085 13.8422C8.76059 14.5526 11.2399 14.5526 13.5596 13.8422C13.6408 13.8162 13.7265 13.8071 13.8113 13.8155C13.8962 13.8239 13.9784 13.8495 14.053 13.8909C14.1276 13.9322 14.1929 13.9884 14.245 14.0559C14.297 14.1235 14.3347 14.2009 14.3557 14.2836C14.3922 14.4417 14.3672 14.6078 14.2858 14.7482C14.2044 14.8886 14.0727 14.9928 13.9174 15.0398C13.1887 15.2702 12.4402 15.4324 11.6815 15.5242C11.6347 15.5299 11.5898 15.5461 11.5502 15.5716C11.5106 15.5971 11.4773 15.6312 11.4527 15.6714C11.4281 15.7116 11.413 15.7568 11.4083 15.8037C11.4037 15.8506 11.4098 15.8979 11.426 15.9422L11.6987 16.6804C11.7592 16.8417 11.8521 16.9888 11.9715 17.1128C12.091 17.2369 12.2345 17.3352 12.3934 17.4018C12.5522 17.4683 12.7229 17.5018 12.8951 17.5C13.0673 17.4982 13.2373 17.4612 13.3948 17.3914L18.6291 15.0703C18.8992 14.952 19.1185 14.7418 19.2482 14.477C19.3778 14.2122 19.4092 13.91 19.3369 13.6242ZM7.18772 11.875C7.0023 11.875 6.82105 11.82 6.66687 11.717C6.5127 11.614 6.39254 11.4675 6.32158 11.2962C6.25063 11.1249 6.23206 10.9364 6.26824 10.7546C6.30441 10.5727 6.3937 10.4057 6.52481 10.2746C6.65592 10.1434 6.82297 10.0542 7.00482 10.018C7.18668 9.98181 7.37518 10.0004 7.54649 10.0713C7.71779 10.1423 7.86421 10.2625 7.96722 10.4166C8.07024 10.5708 8.12522 10.752 8.12522 10.9375C8.12522 11.1861 8.02645 11.4246 7.85063 11.6004C7.67482 11.7762 7.43636 11.875 7.18772 11.875ZM12.8127 11.875C12.6273 11.875 12.446 11.82 12.2919 11.717C12.1377 11.614 12.0175 11.4675 11.9466 11.2962C11.8756 11.1249 11.8571 10.9364 11.8932 10.7546C11.9294 10.5727 12.0187 10.4057 12.1498 10.2746C12.2809 10.1434 12.448 10.0542 12.6298 10.018C12.8117 9.98181 13.0002 10.0004 13.1715 10.0713C13.3428 10.1423 13.4892 10.2625 13.5922 10.4166C13.6952 10.5708 13.7502 10.752 13.7502 10.9375C13.7502 11.1861 13.6514 11.4246 13.4756 11.6004C13.2998 11.7762 13.0614 11.875 12.8127 11.875Z" fill="#6154F9"/>
</svg>
