<svg width="20" height="20" viewBox="0 0 20 20" fill="none" xmlns="http://www.w3.org/2000/svg">
<path d="M16.0106 12.4814C16.0922 10.8764 15.5308 8.25176 14.1969 6.10456C14.1609 6.04938 14.1009 6.07097 14.1129 6.12855C14.2017 6.45483 14.2233 7.04741 13.7051 7.01142C12.7838 6.94904 13.7362 4.97698 11.7138 3.60948C11.7063 3.60237 11.6964 3.5982 11.6861 3.59773C11.6758 3.59725 11.6656 3.60051 11.6574 3.60691C11.6493 3.6133 11.6437 3.62241 11.6417 3.63257C11.6398 3.64273 11.6415 3.65327 11.6466 3.66226C11.7858 3.92617 11.8673 4.74906 11.5483 5.02976C11.2915 5.25527 10.8285 5.1953 10.3655 4.45397C10.0576 3.94261 9.89865 3.35537 9.9067 2.7585C9.91476 2.16163 10.0895 1.57889 10.4111 1.07602C10.4495 1.01365 10.3967 0.989654 10.3535 1.00405C7.57053 1.92291 7.01394 5.20489 6.42136 6.39965C6.32299 6.60117 6.23662 6.70434 6.06629 6.69474C5.56008 6.66115 5.92474 5.57915 6.09987 5.20249C6.1037 5.19335 6.10426 5.18317 6.10147 5.17367C6.09869 5.16416 6.09271 5.1559 6.08455 5.15027C6.0764 5.14465 6.06655 5.142 6.05668 5.14277C6.0468 5.14354 6.03749 5.14769 6.0303 5.15451C4.40596 6.9396 3.36698 9.17913 3.053 11.5721C3.053 11.5169 3.02901 11.7689 3.01462 11.9536C3.01462 12.0256 3.00982 12.0983 3.00022 12.1719C3.00022 12.2583 3.00022 12.3446 3.00022 12.4334C2.98591 14.1606 3.6583 15.8227 4.86949 17.0542C6.08067 18.2856 7.73144 18.9855 9.45863 18.9998C11.1858 19.0141 12.848 18.3417 14.0794 17.1305C15.3108 15.9193 16.0107 14.2686 16.025 12.5414C16.013 12.5198 16.0106 12.5006 16.0106 12.4814ZM9.47542 15.5067C8.87764 15.5033 8.29429 15.3227 7.79923 14.9876C7.30418 14.6525 6.9197 14.178 6.69446 13.6243C6.46922 13.0706 6.41336 12.4624 6.53395 11.8769C6.65454 11.2914 6.94616 10.7549 7.37188 10.3352C7.7976 9.91553 8.33828 9.63163 8.92545 9.51943C9.51262 9.40724 10.1199 9.4718 10.6703 9.70494C11.2208 9.93809 11.6897 10.3293 12.0177 10.8291C12.3456 11.3289 12.5179 11.9148 12.5127 12.5126C12.5057 13.312 12.1821 14.076 11.6128 14.6373C11.0435 15.1985 10.2749 15.5111 9.47542 15.5067Z" fill="#6154F9"/>
</svg>
