<svg width="20" height="512" viewBox="0 0 20 512" fill="none" xmlns="http://www.w3.org/2000/svg">
<g opacity="0.6">
<path d="M3.8 509.952L8.616 509.952L8.616 503.584L3.8 503.584L3.8 502.016L15 502.016L15 503.584L10.168 503.584L10.168 509.952L15 509.952L15 511.52L3.8 511.52L3.8 509.952ZM3.8 501.051L3.8 492.635L5.272 492.635L5.272 499.483L8.904 499.483L8.904 492.859L10.216 492.859L10.216 499.483L13.528 499.483L13.528 492.635L15 492.635L15 501.051L3.8 501.051ZM15 491.723L3.8 491.723L3.8 486.603C3.8 485.323 4.06133 484.32 4.584 483.595C5.10666 482.87 5.928 482.507 7.048 482.507C7.56 482.507 7.96 482.592 8.248 482.763C8.536 482.934 8.776 483.126 8.968 483.339C9.08533 483.446 9.192 483.574 9.288 483.723C9.37333 483.872 9.448 484.032 9.512 484.203C9.576 484.374 9.62933 484.55 9.672 484.731C9.71467 484.902 9.752 485.067 9.784 485.227L9.816 485.227C9.784 485.056 9.752 484.875 9.72 484.683C9.688 484.48 9.672 484.278 9.672 484.075C9.672 483.894 9.69333 483.728 9.736 483.579C9.768 483.419 9.832 483.28 9.928 483.163C10.0667 482.95 10.2693 482.768 10.536 482.619C10.8027 482.47 11.2133 482.395 11.768 482.395L15 482.379L15 483.963L11.864 483.963C11.5547 483.963 11.3307 484.048 11.192 484.219C11.0427 484.379 10.968 484.672 10.968 485.099L10.984 490.139L15 490.139L15 491.723ZM9.592 486.907C9.592 486.47 9.53867 486.075 9.432 485.723C9.31467 485.36 9.15467 485.046 8.952 484.779C8.74933 484.512 8.51467 484.31 8.248 484.171C7.98133 484.022 7.688 483.947 7.368 483.947C6.536 483.947 5.96 484.198 5.64 484.699C5.32 485.19 5.16 485.867 5.16 486.731L5.16 490.139L9.592 490.139L9.592 486.907ZM3.8 476.96C3.8 475.723 4.03466 474.774 4.504 474.112C4.96266 473.44 5.688 473.104 6.68 473.104C6.78666 473.104 6.92 473.131 7.08 473.184C7.24 473.227 7.41066 473.302 7.592 473.408C7.76266 473.515 7.93333 473.654 8.104 473.824C8.264 473.995 8.40266 474.203 8.52 474.448C8.584 474.566 8.632 474.704 8.664 474.864C8.68533 475.024 8.70133 475.168 8.712 475.296L8.744 475.296C8.73333 475.168 8.728 475.024 8.728 474.864C8.71733 474.694 8.73333 474.544 8.776 474.416C8.872 474.054 9.016 473.744 9.208 473.488C9.4 473.232 9.624 473.024 9.88 472.864C10.1253 472.694 10.3973 472.571 10.696 472.496C10.9947 472.422 11.304 472.384 11.624 472.384C12.8187 472.384 13.6827 472.747 14.216 473.472C14.7387 474.198 15 475.2 15 476.48L15 481.536L3.8 481.536L3.8 476.96ZM13.528 479.968L13.528 476.384C13.528 476.054 13.4907 475.739 13.416 475.44C13.3307 475.142 13.208 474.88 13.048 474.656C12.8773 474.432 12.6693 474.256 12.424 474.128C12.168 473.99 11.8747 473.92 11.544 473.92C11 473.92 10.6 474.107 10.344 474.48C10.0773 474.843 9.944 475.35 9.944 476L9.944 479.968L13.528 479.968ZM8.648 479.968L8.648 476.224C8.648 475.584 8.504 475.136 8.216 474.88C7.91733 474.614 7.50133 474.48 6.968 474.48C6.648 474.48 6.38133 474.55 6.168 474.688C5.944 474.816 5.768 474.992 5.64 475.216C5.50133 475.43 5.4 475.68 5.336 475.968C5.272 476.256 5.24 476.555 5.24 476.864L5.24 479.968L8.648 479.968ZM3.8 471.567L3.8 463.151L5.272 463.151L5.272 469.999L8.904 469.999L8.904 463.375L10.216 463.375L10.216 469.999L13.528 469.999L13.528 463.151L15 463.151L15 471.567L3.8 471.567ZM15 462.239L3.8 462.239L3.8 457.119C3.8 455.839 4.06133 454.836 4.584 454.111C5.10666 453.385 5.928 453.023 7.048 453.023C7.56 453.023 7.96 453.108 8.248 453.279C8.536 453.449 8.776 453.641 8.968 453.855C9.08533 453.961 9.192 454.089 9.288 454.239C9.37333 454.388 9.448 454.548 9.512 454.719C9.576 454.889 9.62933 455.065 9.672 455.247C9.71466 455.417 9.752 455.583 9.784 455.743L9.816 455.743C9.784 455.572 9.752 455.391 9.72 455.199C9.688 454.996 9.672 454.793 9.672 454.591C9.672 454.409 9.69333 454.244 9.736 454.095C9.768 453.935 9.832 453.796 9.928 453.679C10.0667 453.465 10.2693 453.284 10.536 453.135C10.8027 452.985 11.2133 452.911 11.768 452.911L15 452.895L15 454.479L11.864 454.479C11.5547 454.479 11.3307 454.564 11.192 454.735C11.0427 454.895 10.968 455.188 10.968 455.615L10.984 460.655L15 460.655L15 462.239ZM9.592 457.423C9.592 456.985 9.53866 456.591 9.432 456.239C9.31466 455.876 9.15466 455.561 8.952 455.295C8.74933 455.028 8.51466 454.825 8.248 454.687C7.98133 454.537 7.688 454.463 7.368 454.463C6.536 454.463 5.96 454.713 5.64 455.215C5.32 455.705 5.16 456.383 5.16 457.247L5.16 460.655L9.592 460.655L9.592 457.423ZM3.8 443.032L5.272 443.032L5.272 446.52C5.272 446.68 5.23466 446.846 5.16 447.016C5.08533 447.176 4.98933 447.315 4.872 447.432L4.904 447.464C5.02133 447.347 5.16533 447.251 5.336 447.176C5.496 447.102 5.656 447.064 5.816 447.064L15 447.064L15 448.632L5.272 448.632L5.272 452.664L3.8 452.664L3.8 443.032ZM9.4 439.164C8.42933 439.164 7.58666 439.025 6.872 438.748C6.14666 438.47 5.54933 438.086 5.08 437.596C4.6 437.105 4.248 436.529 4.024 435.868C3.78933 435.206 3.67733 434.486 3.688 433.708C3.69866 433.068 3.784 432.46 3.944 431.884C4.104 431.308 4.34933 430.79 4.68 430.332C5 429.862 5.40533 429.462 5.896 429.132C6.38666 428.801 6.96266 428.556 7.624 428.396L8.04 429.916C7.22933 430.108 6.568 430.529 6.056 431.18C5.53333 431.82 5.272 432.662 5.272 433.708C5.272 434.326 5.368 434.881 5.56 435.372C5.74133 435.852 6.01333 436.257 6.376 436.588C6.728 436.918 7.16 437.169 7.672 437.34C8.184 437.51 8.76 437.596 9.4 437.596C10.0507 437.596 10.632 437.505 11.144 437.324C11.656 437.142 12.088 436.886 12.44 436.556C12.792 436.214 13.064 435.804 13.256 435.324C13.4373 434.844 13.528 434.305 13.528 433.708C13.528 433.174 13.4587 432.7 13.32 432.284C13.1813 431.857 12.9893 431.484 12.744 431.164C12.4987 430.844 12.2107 430.582 11.88 430.38C11.5387 430.166 11.1653 430.012 10.76 429.916L11.176 428.396C11.8373 428.556 12.4133 428.801 12.904 429.132C13.3947 429.462 13.8053 429.862 14.136 430.332C14.456 430.79 14.696 431.308 14.856 431.884C15.016 432.46 15.1013 433.068 15.112 433.708C15.1227 434.486 15.016 435.206 14.792 435.868C14.5573 436.529 14.2053 437.105 13.736 437.596C13.256 438.086 12.6587 438.47 11.944 438.748C11.2187 439.025 10.3707 439.164 9.4 439.164ZM15 428.836L3.8 424.612L3.8 422.324L15 418.1L15 419.78L12.328 420.82L12.328 426.132L15 427.14L15 428.836ZM10.936 425.636C10.936 424.964 10.936 424.388 10.936 423.908C10.936 423.428 10.9573 423.017 11 422.676C11.032 422.335 11.1333 422.009 11.304 421.7C11.4747 421.38 11.7627 421.103 12.168 420.868L5.208 423.476L10.936 425.636ZM15 417.27L3.8 417.27L3.79999 412.15C3.79999 410.87 4.06133 409.867 4.584 409.142C5.10666 408.417 5.92799 408.054 7.048 408.054C7.56 408.054 7.96 408.139 8.248 408.31C8.536 408.481 8.776 408.673 8.968 408.886C9.08533 408.993 9.192 409.121 9.288 409.27C9.37333 409.419 9.448 409.579 9.512 409.75C9.576 409.921 9.62933 410.097 9.672 410.278C9.71466 410.449 9.752 410.614 9.784 410.774L9.816 410.774C9.784 410.603 9.752 410.422 9.72 410.23C9.688 410.027 9.672 409.825 9.672 409.622C9.672 409.441 9.69333 409.275 9.736 409.126C9.768 408.966 9.832 408.827 9.928 408.71C10.0667 408.497 10.2693 408.315 10.536 408.166C10.8027 408.017 11.2133 407.942 11.768 407.942L15 407.926L15 409.51L11.864 409.51C11.5547 409.51 11.3307 409.595 11.192 409.766C11.0427 409.926 10.968 410.219 10.968 410.646L10.984 415.686L15 415.686L15 417.27ZM9.592 412.454C9.592 412.017 9.53866 411.622 9.432 411.27C9.31466 410.907 9.15466 410.593 8.952 410.326C8.74933 410.059 8.51466 409.857 8.248 409.718C7.98133 409.569 7.688 409.494 7.368 409.494C6.536 409.494 5.96 409.745 5.63999 410.246C5.32 410.737 5.16 411.414 5.16 412.278L5.16 415.686L9.592 415.686L9.592 412.454ZM15 407.051L3.79999 407.051L3.79999 405.435L12.056 399.275C12.2373 399.137 12.44 399.009 12.664 398.891C12.888 398.774 13.1067 398.683 13.32 398.619L13.304 398.587C13.1013 398.662 12.872 398.721 12.616 398.763C12.36 398.806 12.1253 398.827 11.912 398.827L3.79999 398.827L3.79999 397.259L15 397.259L15 398.875L6.83999 405.051C6.66933 405.179 6.47199 405.302 6.24799 405.419C6.01333 405.537 5.78933 405.633 5.57599 405.707L5.592 405.723C5.80533 405.659 6.03999 405.606 6.29599 405.563C6.54133 405.51 6.776 405.483 7 405.483L15 405.483L15 407.051ZM15 396.445L3.79999 392.221L3.79999 389.933L15 385.709L15 387.389L12.328 388.429L12.328 393.741L15 394.749L15 396.445ZM10.936 393.245C10.936 392.573 10.936 391.997 10.936 391.517C10.936 391.037 10.9573 390.627 11 390.285C11.032 389.944 11.1333 389.619 11.304 389.309C11.4747 388.989 11.7627 388.712 12.168 388.477L5.20799 391.085L10.936 393.245ZM10.136 384.879L3.79999 384.879L3.79999 383.311L10.152 383.311C10.696 383.311 11.1867 383.231 11.624 383.071C12.0507 382.911 12.4187 382.687 12.728 382.399C13.0267 382.101 13.256 381.743 13.416 381.327C13.576 380.901 13.656 380.431 13.656 379.919C13.656 378.885 13.352 378.069 12.744 377.471C12.1253 376.874 11.2613 376.575 10.152 376.575L3.79999 376.575L3.79999 375.007L10.136 375.007C10.9893 375.007 11.7307 375.141 12.36 375.407C12.9787 375.674 13.496 376.037 13.912 376.495C14.3173 376.943 14.6213 377.466 14.824 378.063C15.0267 378.65 15.128 379.269 15.128 379.919C15.128 380.602 15.032 381.247 14.84 381.855C14.6373 382.453 14.3333 382.975 13.928 383.423C13.5227 383.871 13.0053 384.229 12.376 384.495C11.7467 384.751 11 384.879 10.136 384.879ZM2.87199 380.847L0.599994 379.919L0.599994 378.143L2.87199 379.583L2.87199 380.847ZM3.79999 369.507C3.79999 368.27 4.03466 367.321 4.50399 366.659C4.96266 365.987 5.68799 365.651 6.67999 365.651C6.78666 365.651 6.91999 365.678 7.07999 365.731C7.23999 365.774 7.41066 365.849 7.59199 365.955C7.76266 366.062 7.93333 366.201 8.10399 366.371C8.26399 366.542 8.40266 366.75 8.51999 366.995C8.58399 367.113 8.63199 367.251 8.66399 367.411C8.68533 367.571 8.70133 367.715 8.71199 367.843L8.74399 367.843C8.73333 367.715 8.72799 367.571 8.72799 367.411C8.71733 367.241 8.73333 367.091 8.77599 366.963C8.87199 366.601 9.01599 366.291 9.20799 366.035C9.39999 365.779 9.62399 365.571 9.87999 365.411C10.1253 365.241 10.3973 365.118 10.696 365.043C10.9947 364.969 11.304 364.931 11.624 364.931C12.8187 364.931 13.6827 365.294 14.216 366.019C14.7387 366.745 15 367.747 15 369.027L15 374.083L3.79999 374.083L3.79999 369.507ZM13.528 372.515L13.528 368.931C13.528 368.601 13.4907 368.286 13.416 367.987C13.3307 367.689 13.208 367.427 13.048 367.203C12.8773 366.979 12.6693 366.803 12.424 366.675C12.168 366.537 11.8747 366.467 11.544 366.467C11 366.467 10.6 366.654 10.344 367.027C10.0773 367.39 9.94399 367.897 9.94399 368.547L9.94399 372.515L13.528 372.515ZM8.64799 372.515L8.64799 368.771C8.64799 368.131 8.50399 367.683 8.21599 367.427C7.91733 367.161 7.50133 367.027 6.96799 367.027C6.64799 367.027 6.38133 367.097 6.16799 367.235C5.94399 367.363 5.76799 367.539 5.63999 367.763C5.50133 367.977 5.39999 368.227 5.33599 368.515C5.27199 368.803 5.23999 369.102 5.23999 369.411L5.23999 372.515L8.64799 372.515ZM15 364.258L3.79999 360.034L3.79999 357.746L15 353.522L15 355.202L12.328 356.242L12.328 361.554L15 362.562L15 364.258ZM10.936 361.058C10.936 360.386 10.936 359.81 10.936 359.33C10.936 358.85 10.9573 358.439 11 358.098C11.032 357.756 11.1333 357.431 11.304 357.122C11.4747 356.802 11.7627 356.524 12.168 356.29L5.20799 358.898L10.936 361.058Z" fill="white"/>
<line x1="10" y1="350" x2="9.99998" y2="2.18557e-08" stroke="white"/>
</g>
</svg>
