<svg width="36" height="36" viewBox="0 0 36 36" fill="none" xmlns="http://www.w3.org/2000/svg">
<rect x="0.5" y="0.5" width="35" height="35" rx="7.5" stroke="#E6E4ED" stroke-opacity="0.1"/>
<path d="M15.317 16.3078C15.3752 16.3658 15.4213 16.4348 15.4527 16.5106C15.4842 16.5865 15.5004 16.6678 15.5004 16.75C15.5004 16.8321 15.4842 16.9134 15.4527 16.9893C15.4213 17.0652 15.3752 17.1341 15.317 17.1922L12.817 19.6922C12.759 19.7503 12.6901 19.7964 12.6142 19.8278C12.5383 19.8593 12.457 19.8755 12.3749 19.8755C12.2927 19.8755 12.2114 19.8593 12.1355 19.8278C12.0596 19.7964 11.9907 19.7503 11.9327 19.6922L10.6827 18.4422C10.6246 18.3841 10.5785 18.3152 10.5471 18.2393C10.5157 18.1634 10.4995 18.0821 10.4995 18C10.4995 17.8341 10.5654 17.6751 10.6827 17.5578C10.7999 17.4405 10.959 17.3746 11.1249 17.3746C11.2907 17.3746 11.4498 17.4405 11.567 17.5578L12.3749 18.3664L14.4327 16.3078C14.4907 16.2497 14.5596 16.2036 14.6355 16.1721C14.7114 16.1407 14.7927 16.1245 14.8749 16.1245C14.957 16.1245 15.0383 16.1407 15.1142 16.1721C15.1901 16.2036 15.259 16.2497 15.317 16.3078ZM14.4327 11.3078L12.3749 13.3664L11.567 12.5578C11.4498 12.4405 11.2907 12.3746 11.1249 12.3746C10.959 12.3746 10.7999 12.4405 10.6827 12.5578C10.5654 12.6751 10.4995 12.8341 10.4995 13C10.4995 13.1658 10.5654 13.3249 10.6827 13.4422L11.9327 14.6922C11.9907 14.7503 12.0596 14.7964 12.1355 14.8278C12.2114 14.8593 12.2927 14.8755 12.3749 14.8755C12.457 14.8755 12.5383 14.8593 12.6142 14.8278C12.6901 14.7964 12.759 14.7503 12.817 14.6922L15.317 12.1922C15.4343 12.0749 15.5002 11.9158 15.5002 11.75C15.5002 11.5841 15.4343 11.4251 15.317 11.3078C15.1998 11.1905 15.0407 11.1246 14.8749 11.1246C14.709 11.1246 14.5499 11.1905 14.4327 11.3078ZM14.4327 21.3078L12.3749 23.3664L11.567 22.5578C11.509 22.4997 11.44 22.4537 11.3642 22.4222C11.2883 22.3908 11.207 22.3746 11.1249 22.3746C11.0427 22.3746 10.9614 22.3908 10.8855 22.4222C10.8097 22.4537 10.7407 22.4997 10.6827 22.5578C10.6246 22.6159 10.5785 22.6848 10.5471 22.7607C10.5157 22.8365 10.4995 22.9179 10.4995 23C10.4995 23.0821 10.5157 23.1634 10.5471 23.2393C10.5785 23.3152 10.6246 23.3841 10.6827 23.4422L11.9327 24.6922C11.9907 24.7503 12.0596 24.7964 12.1355 24.8278C12.2114 24.8593 12.2927 24.8755 12.3749 24.8755C12.457 24.8755 12.5383 24.8593 12.6142 24.8278C12.6901 24.7964 12.759 24.7503 12.817 24.6922L15.317 22.1922C15.4343 22.0749 15.5002 21.9158 15.5002 21.75C15.5002 21.5841 15.4343 21.4251 15.317 21.3078C15.1998 21.1905 15.0407 21.1246 14.8749 21.1246C14.709 21.1246 14.5499 21.1905 14.4327 21.3078ZM24.8749 11.75H17.9999C17.8341 11.75 17.6751 11.8158 17.5579 11.933C17.4407 12.0502 17.3749 12.2092 17.3749 12.375V13.625C17.3749 13.7907 17.4407 13.9497 17.5579 14.0669C17.6751 14.1841 17.8341 14.25 17.9999 14.25H24.8749C25.0406 14.25 25.1996 14.1841 25.3168 14.0669C25.434 13.9497 25.4999 13.7907 25.4999 13.625V12.375C25.4999 12.2092 25.434 12.0502 25.3168 11.933C25.1996 11.8158 25.0406 11.75 24.8749 11.75ZM24.8749 21.75H17.9999C17.8341 21.75 17.6751 21.8158 17.5579 21.933C17.4407 22.0503 17.3749 22.2092 17.3749 22.375V23.625C17.3749 23.7907 17.4407 23.9497 17.5579 24.0669C17.6751 24.1841 17.8341 24.25 17.9999 24.25H24.8749C25.0406 24.25 25.1996 24.1841 25.3168 24.0669C25.434 23.9497 25.4999 23.7907 25.4999 23.625V22.375C25.4999 22.2092 25.434 22.0503 25.3168 21.933C25.1996 21.8158 25.0406 21.75 24.8749 21.75ZM24.8749 16.75H17.9999C17.8341 16.75 17.6751 16.8158 17.5579 16.933C17.4407 17.0503 17.3749 17.2092 17.3749 17.375V18.625C17.3749 18.7907 17.4407 18.9497 17.5579 19.0669C17.6751 19.1841 17.8341 19.25 17.9999 19.25H24.8749C25.0406 19.25 25.1996 19.1841 25.3168 19.0669C25.434 18.9497 25.4999 18.7907 25.4999 18.625V17.375C25.4999 17.2092 25.434 17.0503 25.3168 16.933C25.1996 16.8158 25.0406 16.75 24.8749 16.75Z" fill="#E6E4ED"/>
</svg>
