<svg width="110" height="45" viewBox="0 0 110 45" fill="none" xmlns="http://www.w3.org/2000/svg">
<path d="M4.88948 11.117C4.26563 11.117 3.68466 11.0156 3.14658 10.8128C2.6163 10.6023 2.15231 10.3099 1.7546 9.93554C1.36469 9.55343 1.06056 9.10503 0.842208 8.59035C0.623857 8.07567 0.514682 7.5142 0.514682 6.90594C0.514682 6.29767 0.623857 5.7362 0.842208 5.22152C1.06056 4.70684 1.36859 4.26234 1.7663 3.88803C2.16401 3.50591 2.628 3.21348 3.15828 3.01073C3.68856 2.80017 4.26952 2.6949 4.90118 2.6949C5.57183 2.6949 6.18399 2.81187 6.73766 3.04582C7.29133 3.27197 7.75923 3.61119 8.14134 4.06349L7.15876 4.98757C6.86243 4.66785 6.53101 4.43 6.16449 4.27404C5.79797 4.11027 5.40027 4.02839 4.97136 4.02839C4.54246 4.02839 4.14865 4.09858 3.78993 4.23895C3.43901 4.37931 3.13098 4.57817 2.86584 4.83551C2.6085 5.09285 2.40575 5.39698 2.25758 5.7479C2.11722 6.09882 2.04703 6.48483 2.04703 6.90594C2.04703 7.32704 2.11722 7.71305 2.25758 8.06397C2.40575 8.41489 2.6085 8.71902 2.86584 8.97636C3.13098 9.2337 3.43901 9.43256 3.78993 9.57293C4.14865 9.71329 4.54246 9.78348 4.97136 9.78348C5.40027 9.78348 5.79797 9.7055 6.16449 9.54953C6.53101 9.38577 6.86243 9.14013 7.15876 8.8126L8.14134 9.74839C7.75923 10.1929 7.29133 10.5321 6.73766 10.7661C6.18399 11 5.56793 11.117 4.88948 11.117ZM14.2776 11.117C13.1546 11.117 12.2735 10.8011 11.634 10.1695C11.0023 9.53783 10.6865 8.62544 10.6865 7.43232V2.81187H12.2072V7.37383C12.2072 8.21604 12.3865 8.8282 12.7452 9.21031C13.1118 9.59242 13.6264 9.78348 14.2893 9.78348C14.9521 9.78348 15.4629 9.59242 15.8216 9.21031C16.1804 8.8282 16.3597 8.21604 16.3597 7.37383V2.81187H17.857V7.43232C17.857 8.62544 17.5372 9.53783 16.8978 10.1695C16.2661 10.8011 15.3927 11.117 14.2776 11.117ZM21.1563 11V2.81187H24.5252C25.2504 2.81187 25.8704 2.92884 26.3851 3.16279C26.9075 3.39674 27.3091 3.73206 27.5899 4.16876C27.8706 4.60546 28.011 5.12404 28.011 5.72451C28.011 6.32497 27.8706 6.84355 27.5899 7.28025C27.3091 7.70915 26.9075 8.04058 26.3851 8.27452C25.8704 8.50067 25.2504 8.61375 24.5252 8.61375H21.9986L22.677 7.9236V11H21.1563ZM26.5137 11L24.4433 8.02888H26.0692L28.1514 11H26.5137ZM22.677 8.08737L21.9986 7.36213H24.455C25.1256 7.36213 25.6286 7.21786 25.964 6.92933C26.3071 6.6408 26.4786 6.23919 26.4786 5.72451C26.4786 5.20203 26.3071 4.80042 25.964 4.51968C25.6286 4.23895 25.1256 4.09858 24.455 4.09858H21.9986L22.677 3.34995V8.08737ZM33.011 11.117C32.4339 11.117 31.8685 11.0351 31.3148 10.8713C30.769 10.6998 30.3089 10.4658 29.9346 10.1695L30.5779 8.98806C30.8742 9.2298 31.233 9.42476 31.6541 9.57293C32.083 9.72109 32.5275 9.79518 32.9876 9.79518C33.5256 9.79518 33.9467 9.6821 34.2509 9.45595C34.5628 9.2298 34.7188 8.92567 34.7188 8.54356C34.7188 8.28622 34.6525 8.06007 34.5199 7.86512C34.3951 7.67016 34.169 7.52199 33.8415 7.42062C33.5217 7.31924 33.0811 7.26855 32.5197 7.26855H30.5428L30.9639 2.81187H35.7715V4.08688H31.5254L32.3208 3.36165L32.005 6.69538L31.2096 5.98185H32.8589C33.6699 5.98185 34.3211 6.09102 34.8123 6.30937C35.3114 6.51992 35.674 6.81626 35.9002 7.19837C36.1341 7.57268 36.2511 8.00159 36.2511 8.48507C36.2511 8.96077 36.1341 9.39747 35.9002 9.79518C35.6662 10.1929 35.3075 10.5126 34.824 10.7544C34.3483 10.9961 33.744 11.117 33.011 11.117ZM41.7136 11.117C41.0663 11.117 40.4815 10.9532 39.959 10.6257C39.4443 10.2982 39.0388 9.82247 38.7425 9.19861C38.4461 8.56696 38.298 7.80273 38.298 6.90594C38.298 6.00914 38.4461 5.24881 38.7425 4.62496C39.0388 3.9933 39.4443 3.51371 39.959 3.18619C40.4815 2.85866 41.0663 2.6949 41.7136 2.6949C42.3686 2.6949 42.9535 2.85866 43.4682 3.18619C43.9829 3.51371 44.3884 3.9933 44.6847 4.62496C44.9888 5.24881 45.1409 6.00914 45.1409 6.90594C45.1409 7.80273 44.9888 8.56696 44.6847 9.19861C44.3884 9.82247 43.9829 10.2982 43.4682 10.6257C42.9535 10.9532 42.3686 11.117 41.7136 11.117ZM41.7136 9.79518C42.0957 9.79518 42.4271 9.6938 42.7079 9.49104C42.9886 9.28049 43.2069 8.96077 43.3629 8.53186C43.5267 8.10296 43.6085 7.56099 43.6085 6.90594C43.6085 6.24309 43.5267 5.70111 43.3629 5.28001C43.2069 4.85111 42.9886 4.53528 42.7079 4.33252C42.4271 4.12197 42.0957 4.0167 41.7136 4.0167C41.3471 4.0167 41.0195 4.12197 40.731 4.33252C40.4503 4.53528 40.228 4.85111 40.0643 5.28001C39.9083 5.70111 39.8303 6.24309 39.8303 6.90594C39.8303 7.56099 39.9083 8.10296 40.0643 8.53186C40.228 8.96077 40.4503 9.28049 40.731 9.49104C41.0195 9.6938 41.3471 9.79518 41.7136 9.79518ZM52.3256 11V2.81187H55.6944C56.4197 2.81187 57.0396 2.92884 57.5543 3.16279C58.0768 3.39674 58.4784 3.73206 58.7591 4.16876C59.0399 4.60546 59.1802 5.12404 59.1802 5.72451C59.1802 6.32497 59.0399 6.84355 58.7591 7.28025C58.4784 7.70915 58.0768 8.04058 57.5543 8.27452C57.0396 8.50067 56.4197 8.61375 55.6944 8.61375H53.1678L53.8463 7.9236V11H52.3256ZM57.683 11L55.6126 8.02888H57.2385L59.3206 11H57.683ZM53.8463 8.08737L53.1678 7.36213H55.6243C56.2949 7.36213 56.7979 7.21786 57.1332 6.92933C57.4763 6.6408 57.6479 6.23919 57.6479 5.72451C57.6479 5.20203 57.4763 4.80042 57.1332 4.51968C56.7979 4.23895 56.2949 4.09858 55.6243 4.09858H53.1678L53.8463 3.34995V8.08737ZM63.9827 11.117C63.4057 11.117 62.8403 11.0351 62.2866 10.8713C61.7407 10.6998 61.2806 10.4658 60.9063 10.1695L61.5614 8.98806C61.8577 9.2298 62.2164 9.42476 62.6375 9.57293C63.0586 9.72109 63.4992 9.79518 63.9593 9.79518C64.5052 9.79518 64.9302 9.686 65.2343 9.46765C65.5385 9.2415 65.6905 8.93737 65.6905 8.55526C65.6905 8.18094 65.5502 7.88461 65.2694 7.66626C64.9887 7.44791 64.5364 7.33874 63.9125 7.33874H63.1639V6.29767L65.5034 3.51371L65.7022 4.08688H61.304V2.81187H66.8837V3.82954L64.5442 6.6135L63.7488 6.14561H64.205C65.2109 6.14561 65.9635 6.37176 66.4626 6.82405C66.9694 7.26855 67.2229 7.84172 67.2229 8.54356C67.2229 9.00366 67.1059 9.42866 66.872 9.81857C66.638 10.2085 66.2793 10.5243 65.7958 10.7661C65.3201 11 64.7158 11.117 63.9827 11.117ZM70.6974 11V3.39674L71.3641 4.08688H68.9662V2.81187H72.218V11H70.6974ZM79.9994 11V2.81187H83.5788C84.4678 2.81187 85.2476 2.98343 85.9182 3.32655C86.5889 3.66968 87.1114 4.14537 87.4857 4.75363C87.86 5.36189 88.0471 6.07932 88.0471 6.90594C88.0471 7.72475 87.86 8.44218 87.4857 9.05824C87.1114 9.6665 86.5889 10.1422 85.9182 10.4853C85.2476 10.8284 84.4678 11 83.5788 11H79.9994ZM81.52 9.71329H83.5086C84.1246 9.71329 84.6549 9.59632 85.0994 9.36237C85.5517 9.12843 85.8987 8.8009 86.1405 8.3798C86.39 7.9587 86.5148 7.46741 86.5148 6.90594C86.5148 6.33667 86.39 5.84538 86.1405 5.43207C85.8987 5.01097 85.5517 4.68344 85.0994 4.4495C84.6549 4.21555 84.1246 4.09858 83.5086 4.09858H81.52V9.71329ZM93.6639 11.117C93.0166 11.117 92.4317 10.9532 91.9093 10.6257C91.3946 10.2982 90.9891 9.82247 90.6927 9.19861C90.3964 8.56696 90.2482 7.80273 90.2482 6.90594C90.2482 6.00914 90.3964 5.24881 90.6927 4.62496C90.9891 3.9933 91.3946 3.51371 91.9093 3.18619C92.4317 2.85866 93.0166 2.6949 93.6639 2.6949C94.3189 2.6949 94.9038 2.85866 95.4185 3.18619C95.9331 3.51371 96.3387 3.9933 96.635 4.62496C96.9391 5.24881 97.0912 6.00914 97.0912 6.90594C97.0912 7.80273 96.9391 8.56696 96.635 9.19861C96.3387 9.82247 95.9331 10.2982 95.4185 10.6257C94.9038 10.9532 94.3189 11.117 93.6639 11.117ZM93.6639 9.79518C94.046 9.79518 94.3774 9.6938 94.6581 9.49104C94.9389 9.28049 95.1572 8.96077 95.3132 8.53186C95.477 8.10296 95.5588 7.56099 95.5588 6.90594C95.5588 6.24309 95.477 5.70111 95.3132 5.28001C95.1572 4.85111 94.9389 4.53528 94.6581 4.33252C94.3774 4.12197 94.046 4.0167 93.6639 4.0167C93.2974 4.0167 92.9698 4.12197 92.6813 4.33252C92.4006 4.53528 92.1783 4.85111 92.0145 5.28001C91.8586 5.70111 91.7806 6.24309 91.7806 6.90594C91.7806 7.56099 91.8586 8.10296 92.0145 8.53186C92.1783 8.96077 92.4006 9.28049 92.6813 9.49104C92.9698 9.6938 93.2974 9.79518 93.6639 9.79518Z" fill="white"/>
<path d="M43.784 39V21.0464H51.6323C53.5815 21.0464 55.2914 21.4226 56.7619 22.1749C58.2323 22.9272 59.378 23.9703 60.1987 25.304C61.0194 26.6377 61.4298 28.2107 61.4298 30.0232C61.4298 31.8186 61.0194 33.3916 60.1987 34.7424C59.378 36.0761 58.2323 37.1191 56.7619 37.8715C55.2914 38.6238 53.5815 39 51.6323 39H43.784ZM47.1182 36.1787H51.4784C52.8292 36.1787 53.9919 35.9222 54.9665 35.4093C55.9582 34.8963 56.7191 34.1782 57.2492 33.2548C57.7963 32.3315 58.0699 31.2543 58.0699 30.0232C58.0699 28.775 57.7963 27.6978 57.2492 26.7915C56.7191 25.8682 55.9582 25.1501 54.9665 24.6371C53.9919 24.1241 52.8292 23.8677 51.4784 23.8677H47.1182V36.1787ZM66.3133 39V22.3288L67.7753 23.842H62.5174V21.0464H69.6476V39H66.3133ZM82.8784 39.2565C81.4763 39.2565 80.1853 39.0342 79.0055 38.5896C77.8428 38.128 76.8254 37.4868 75.9534 36.666C75.0814 35.8282 74.406 34.845 73.9272 33.7165C73.4484 32.588 73.2091 31.3569 73.2091 30.0232C73.2091 28.6895 73.4484 27.4584 73.9272 26.3299C74.406 25.2014 75.0814 24.2267 75.9534 23.406C76.8425 22.5682 77.877 21.927 79.0568 21.4824C80.2366 21.0207 81.5276 20.7899 82.9297 20.7899C84.4514 20.7899 85.8193 21.0378 87.0333 21.5337C88.2644 22.0296 89.2989 22.7563 90.1368 23.7138L88.0336 25.7656C87.3326 25.0646 86.5717 24.5516 85.7509 24.2267C84.9473 23.8848 84.0582 23.7138 83.0835 23.7138C82.1431 23.7138 81.2711 23.8677 80.4674 24.1754C79.6638 24.4832 78.9713 24.9192 78.39 25.4835C77.8086 26.0477 77.3555 26.7146 77.0306 27.484C76.7228 28.2535 76.5689 29.0999 76.5689 30.0232C76.5689 30.9294 76.7228 31.7673 77.0306 32.5367C77.3555 33.3061 77.8086 33.9815 78.39 34.5629C78.9713 35.1271 79.6553 35.5632 80.4418 35.8709C81.2283 36.1787 82.1004 36.3326 83.0579 36.3326C83.947 36.3326 84.802 36.1958 85.6227 35.9222C86.4605 35.6316 87.2556 35.1528 88.008 34.4859L89.9059 36.9738C88.9655 37.7261 87.8712 38.299 86.623 38.6922C85.3919 39.0684 84.1437 39.2565 82.8784 39.2565ZM86.7512 36.5378V29.818H89.9059V36.9738L86.7512 36.5378ZM100.51 39.2565C99.0912 39.2565 97.8088 38.8974 96.6632 38.1793C95.5347 37.4611 94.6455 36.4181 93.9958 35.0502C93.346 33.6652 93.0212 31.9895 93.0212 30.0232C93.0212 28.0568 93.346 26.3897 93.9958 25.0218C94.6455 23.6368 95.5347 22.5853 96.6632 21.8671C97.8088 21.149 99.0912 20.7899 100.51 20.7899C101.947 20.7899 103.229 21.149 104.358 21.8671C105.486 22.5853 106.375 23.6368 107.025 25.0218C107.692 26.3897 108.025 28.0568 108.025 30.0232C108.025 31.9895 107.692 33.6652 107.025 35.0502C106.375 36.4181 105.486 37.4611 104.358 38.1793C103.229 38.8974 101.947 39.2565 100.51 39.2565ZM100.51 36.3583C101.348 36.3583 102.075 36.136 102.69 35.6914C103.306 35.2297 103.785 34.5287 104.127 33.5883C104.486 32.6478 104.665 31.4595 104.665 30.0232C104.665 28.5698 104.486 27.3814 104.127 26.4581C103.785 25.5177 103.306 24.8252 102.69 24.3806C102.075 23.919 101.348 23.6881 100.51 23.6881C99.7067 23.6881 98.9886 23.919 98.3559 24.3806C97.7404 24.8252 97.2531 25.5177 96.894 26.4581C96.552 27.3814 96.381 28.5698 96.381 30.0232C96.381 31.4595 96.552 32.6478 96.894 33.5883C97.2531 34.5287 97.7404 35.2297 98.3559 35.6914C98.9886 36.136 99.7067 36.3583 100.51 36.3583Z" fill="white"/>
<path d="M10.7209 38.9352C9.35298 38.9352 8.07913 38.7129 6.89932 38.2683C5.73661 37.8067 4.71924 37.1655 3.8472 36.3447C2.99227 35.5069 2.32542 34.5237 1.84666 33.3952C1.36789 32.2667 1.12851 31.0356 1.12851 29.7019C1.12851 28.3682 1.36789 27.1371 1.84666 26.0086C2.32542 24.8801 3.00082 23.9055 3.87285 23.0847C4.74488 22.2469 5.76226 21.6057 6.92497 21.1611C8.08768 20.6994 9.36153 20.4686 10.7465 20.4686C12.217 20.4686 13.5593 20.7251 14.7733 21.2381C15.9873 21.7339 17.0132 22.4777 17.851 23.4694L15.6966 25.4956C15.0468 24.7946 14.3201 24.2731 13.5165 23.9311C12.7129 23.572 11.8408 23.3925 10.9004 23.3925C9.95998 23.3925 9.0965 23.5464 8.30996 23.8542C7.54052 24.1619 6.86512 24.5979 6.28377 25.1622C5.71951 25.7265 5.27494 26.3933 4.95007 27.1627C4.64229 27.9322 4.4884 28.7786 4.4884 29.7019C4.4884 30.6252 4.64229 31.4716 4.95007 32.2411C5.27494 33.0105 5.71951 33.6773 6.28377 34.2416C6.86512 34.8059 7.54052 35.2419 8.30996 35.5497C9.0965 35.8574 9.95998 36.0113 10.9004 36.0113C11.8408 36.0113 12.7129 35.8403 13.5165 35.4984C14.3201 35.1393 15.0468 34.6007 15.6966 33.8825L17.851 35.9344C17.0132 36.909 15.9873 37.6528 14.7733 38.1658C13.5593 38.6787 12.2085 38.9352 10.7209 38.9352Z" fill="white"/>
<path d="M34.2214 19.6787L30.6997 22.6134L38.33 28.6296V29.51L30.6997 35.6729L34.2214 38.6077L39.2104 34.4991V23.9341L34.2214 19.6787Z" fill="#4B3CFF"/>
<path d="M25.2703 19.6787L28.792 22.6134L21.1617 28.6296V29.51L28.792 35.6729L25.2703 38.6077L20.2813 34.4991V23.9341L25.2703 19.6787Z" fill="#4B3CFF"/>
</svg>
