<svg width="36" height="36" viewBox="0 0 36 36" fill="none" xmlns="http://www.w3.org/2000/svg">
<rect x="0.5" y="0.5" width="35" height="35" rx="7.5" stroke="#E6E4ED" stroke-opacity="0.1"/>
<path d="M24.6922 14.4328L20.3172 10.0578C20.2591 9.99979 20.1902 9.95378 20.1143 9.92241C20.0384 9.89105 19.9571 9.87494 19.875 9.875H12.375C12.0435 9.875 11.7255 10.0067 11.4911 10.2411C11.2567 10.4755 11.125 10.7935 11.125 11.125V24.875C11.125 25.2065 11.2567 25.5245 11.4911 25.7589C11.7255 25.9933 12.0435 26.125 12.375 26.125H23.625C23.9565 26.125 24.2745 25.9933 24.5089 25.7589C24.7433 25.5245 24.875 25.2065 24.875 24.875V14.875C24.8751 14.7929 24.859 14.7116 24.8276 14.6357C24.7962 14.5598 24.7502 14.4909 24.6922 14.4328ZM16.5672 21.3078C16.6253 21.3659 16.6713 21.4348 16.7027 21.5107C16.7342 21.5866 16.7503 21.6679 16.7503 21.75C16.7503 21.8321 16.7342 21.9134 16.7027 21.9893C16.6713 22.0652 16.6253 22.1341 16.5672 22.1922C16.5091 22.2503 16.4402 22.2963 16.3643 22.3277C16.2884 22.3592 16.2071 22.3753 16.125 22.3753C16.0429 22.3753 15.9616 22.3592 15.8857 22.3277C15.8098 22.2963 15.7409 22.2503 15.6828 22.1922L13.8078 20.3172C13.7497 20.2591 13.7036 20.1902 13.6722 20.1143C13.6407 20.0385 13.6245 19.9571 13.6245 19.875C13.6245 19.7929 13.6407 19.7115 13.6722 19.6357C13.7036 19.5598 13.7497 19.4909 13.8078 19.4328L15.6828 17.5578C15.8001 17.4405 15.9591 17.3747 16.125 17.3747C16.2909 17.3747 16.4499 17.4405 16.5672 17.5578C16.6845 17.6751 16.7503 17.8341 16.7503 18C16.7503 18.1659 16.6845 18.3249 16.5672 18.4422L15.1336 19.875L16.5672 21.3078ZM22.1922 20.3172L20.3172 22.1922C20.1999 22.3095 20.0409 22.3753 19.875 22.3753C19.7091 22.3753 19.5501 22.3095 19.4328 22.1922C19.3155 22.0749 19.2497 21.9159 19.2497 21.75C19.2497 21.5841 19.3155 21.4251 19.4328 21.3078L20.8664 19.875L19.4328 18.4422C19.3155 18.3249 19.2497 18.1659 19.2497 18C19.2497 17.8341 19.3155 17.6751 19.4328 17.5578C19.5501 17.4405 19.7091 17.3747 19.875 17.3747C20.0409 17.3747 20.1999 17.4405 20.3172 17.5578L22.1922 19.4328C22.2503 19.4909 22.2964 19.5598 22.3279 19.6357C22.3593 19.7115 22.3755 19.7929 22.3755 19.875C22.3755 19.9571 22.3593 20.0385 22.3279 20.1143C22.2964 20.1902 22.2503 20.2591 22.1922 20.3172ZM19.875 14.875V11.4375L23.3125 14.875H19.875Z" fill="#E6E4ED"/>
</svg>
