<svg width="14" height="15" viewBox="0 0 14 15" fill="none" xmlns="http://www.w3.org/2000/svg">
<path d="M10.0895 7.96427L5.71452 12.3393C5.59123 12.4626 5.42402 12.5318 5.24967 12.5318C5.07532 12.5318 4.90811 12.4626 4.78483 12.3393C4.66155 12.216 4.59229 12.0488 4.59229 11.8744C4.59229 11.7001 4.66155 11.5329 4.78483 11.4096L8.69553 7.49998L4.78592 3.58927C4.72488 3.52823 4.67646 3.45576 4.64342 3.376C4.61038 3.29624 4.59338 3.21076 4.59338 3.12443C4.59338 3.0381 4.61038 2.95262 4.64342 2.87286C4.67646 2.7931 4.72488 2.72063 4.78592 2.65959C4.84697 2.59854 4.91944 2.55012 4.9992 2.51708C5.07895 2.48404 5.16444 2.46704 5.25077 2.46704C5.3371 2.46704 5.42258 2.48404 5.50234 2.51708C5.5821 2.55012 5.65457 2.59854 5.71561 2.65959L10.0906 7.03459C10.1517 7.09563 10.2002 7.16813 10.2332 7.24794C10.2662 7.32774 10.2832 7.41328 10.2831 7.49966C10.283 7.58603 10.2658 7.67153 10.2326 7.75126C10.1994 7.83099 10.1508 7.90338 10.0895 7.96427Z" fill="white"/>
</svg>
