<svg width="150" height="150" viewBox="0 0 150 150" fill="none" xmlns="http://www.w3.org/2000/svg">
<g filter="url(#filter0_b_2029_3118)">
<g filter="url(#filter1_b_2029_3118)">
<path d="M21.0215 69.4272C23.9243 40.0231 50.1147 18.5393 79.5188 21.4421C108.923 24.345 130.407 50.5353 127.504 79.9394C124.601 109.343 98.4107 130.827 69.0066 127.924C39.6025 125.022 18.1187 98.8313 21.0215 69.4272Z" fill="#4B3CFF" fill-opacity="0.1"/>
<path d="M21.9089 69.5148C24.7633 40.6008 50.5171 19.475 79.4312 22.3295C108.345 25.1839 129.471 50.9378 126.617 79.8518C123.762 108.766 98.0082 129.892 69.0942 127.037C40.1802 124.183 19.0544 98.4289 21.9089 69.5148Z" stroke="#4B3CFF" stroke-opacity="0.1" stroke-width="1.78333"/>
</g>
<circle cx="74.2627" cy="74.6834" r="32.9917" transform="rotate(5.6381 74.2627 74.6834)" fill="#4B3CFF" fill-opacity="0.05"/>
<circle cx="74.2627" cy="74.6834" r="32.1" transform="rotate(5.6381 74.2627 74.6834)" stroke="#4B3CFF" stroke-opacity="0.1" stroke-width="1.78333"/>
</g>
<path d="M82.2042 61.9015L76.9944 65.4378L86.6124 74.691L86.4936 75.8945L75.232 83.289L79.6498 87.7757L87.0238 82.8329L88.4495 68.3914L82.2042 61.9015Z" fill="#4B3CFF"/>
<path d="M69.9689 60.6937L74.3867 65.1805L63.1449 72.3744L63.0261 73.5778L72.6244 83.0317L67.4145 86.5679L61.1494 80.2786L62.5751 65.8372L69.9689 60.6937Z" fill="#4B3CFF"/>
<path d="M39.2514 94.3721L40.1281 99.2417L39.3771 99.7068L35.4087 96.7514L36.1336 96.3026L39.775 99.0617L39.3733 99.3104L38.5265 94.8209L39.2514 94.3721Z" fill="#1E1E1E" fill-opacity="0.882353"/>
<path d="M39.4421 89.3449L29.1894 89.3196L28.896 88.4755L39.1487 88.5007L39.4421 89.3449Z" fill="#1E1E1E"/>
<path d="M34.8529 82.1322L34.0059 82.2297L31.8846 78.1725L32.354 78.1185L31.2098 82.5515L30.3629 82.649L31.6429 77.8695L32.5205 77.7685L34.8529 82.1322Z" fill="#1E1E1E"/>
<path d="M42.219 53.449C41.9264 53.9122 41.5805 54.293 41.1812 54.5916C40.7798 54.8808 40.3488 55.0823 39.888 55.1962C39.4251 55.3006 38.9543 55.315 38.4756 55.2394C37.9969 55.1637 37.5317 54.9833 37.0801 54.698C36.6286 54.4127 36.2659 54.0701 35.992 53.6703C35.7181 53.2704 35.5336 52.838 35.4386 52.3729C35.3378 51.9043 35.3347 51.4284 35.4292 50.9454C35.5216 50.453 35.7141 49.9752 36.0068 49.5121C36.303 49.0431 36.6566 48.663 37.0674 48.3718C37.4761 48.0711 37.9245 47.8805 38.4127 47.8002L38.6032 48.7103C38.2137 48.7882 37.8697 48.9353 37.571 49.1517C37.2665 49.3643 37.0101 49.6356 36.8016 49.9656C36.5858 50.3072 36.4425 50.6622 36.3717 51.0306C36.3047 51.3932 36.3076 51.7475 36.3807 52.0933C36.4538 52.4392 36.5967 52.7644 36.8093 53.0688C37.0199 53.3639 37.293 53.6174 37.6288 53.8296C37.9646 54.0417 38.3138 54.1813 38.6764 54.2484C39.0369 54.3061 39.389 54.2936 39.7327 54.2111C40.0765 54.1286 40.3977 53.9792 40.6964 53.7628C40.9987 53.5407 41.2577 53.2589 41.4735 52.9173C41.682 52.5873 41.8198 52.241 41.8869 51.8784C41.9482 51.5121 41.9276 51.1346 41.8249 50.7457L42.7286 50.5269C42.8657 51.0023 42.8891 51.491 42.7988 51.9928C42.7122 52.4889 42.5189 52.9743 42.219 53.449Z" fill="#1E1E1E"/>
<path d="M48.5556 46.1492C47.8647 46.7939 47.1369 47.103 46.3723 47.0765C45.6077 47.05 44.8703 46.6562 44.1602 45.8952L41.3712 42.906L42.1223 42.2052L44.8832 45.1644C45.4298 45.7502 45.9569 46.0591 46.4645 46.0913C46.9772 46.1187 47.4688 45.9129 47.9395 45.4737C48.4151 45.0299 48.6545 44.5537 48.6576 44.0451C48.6657 43.5318 48.3964 42.9822 47.8499 42.3964L45.0889 39.4373L45.8174 38.7575L48.6064 41.7467C49.3165 42.5078 49.6583 43.2706 49.6318 44.0352C49.6103 44.7952 49.2516 45.4998 48.5556 46.1492Z" fill="#1E1E1E"/>
<path d="M54.0486 41.8758L50.6379 35.5459L53.1066 34.2157C53.6612 33.9169 54.1816 33.7493 54.6676 33.713C55.1537 33.6767 55.5915 33.7675 55.9812 33.9854C56.3708 34.2033 56.6891 34.5413 56.936 34.9995C57.1828 35.4576 57.2901 35.9093 57.2577 36.3546C57.2221 36.7938 57.0555 37.2064 56.7579 37.5924C56.4602 37.9783 56.0341 38.3207 55.4794 38.6196L53.5081 39.6817L53.6909 39.0465L54.9528 41.3886L54.0486 41.8758ZM58.2806 39.5956L55.4334 38.166L56.401 37.6447L59.2663 39.0645L58.2806 39.5956ZM53.7396 39.1369L53.094 38.9131L55.0382 37.8656C55.6169 37.5537 55.9874 37.1946 56.1496 36.7883C56.3146 36.3727 56.2753 35.9388 56.0317 35.4867C55.7881 35.0345 55.449 34.7661 55.0144 34.6813C54.5858 34.5933 54.0821 34.7052 53.5034 35.0171L51.5592 36.0646L51.7225 35.3932L53.7396 39.1369Z" fill="#1E1E1E"/>
<path d="M64.8264 37.4665C64.335 37.5903 63.8377 37.6344 63.3344 37.5988C62.8377 37.5615 62.4107 37.4501 62.0532 37.2648L62.3132 36.3624C62.6008 36.523 62.9481 36.6262 63.3551 36.672C63.7621 36.7177 64.1748 36.6879 64.5931 36.5825C65.1244 36.4487 65.5043 36.2329 65.733 35.9352C65.9616 35.6374 66.0283 35.2993 65.9329 34.9208C65.8677 34.6619 65.7477 34.452 65.573 34.2912C65.3983 34.1304 65.1424 34.0395 64.8052 34.0185C64.4729 33.9893 64.0379 34.0424 63.5 34.1779L61.9163 34.5769L61.3663 30.8385L65.3008 29.8472L65.5191 30.7138L61.9532 31.6122L62.3482 30.9936L62.7846 33.945L62.1462 33.5974L63.4909 33.2586C64.1881 33.0829 64.7718 33.0312 65.242 33.1034C65.7121 33.1757 66.0836 33.3469 66.3565 33.6171C66.6277 33.8807 66.8152 34.2183 66.9189 34.63C67.0193 35.0285 67.015 35.4179 66.9061 35.7985C66.7955 36.1724 66.5694 36.5083 66.2278 36.8062C65.8912 37.0958 65.4241 37.3159 64.8264 37.4665Z" fill="#1E1E1E"/>
<path d="M74.571 36.2556C74.0096 36.2655 73.5038 36.1307 73.0536 35.851C72.6103 35.5712 72.2537 35.1597 71.9838 34.6166C71.7208 34.0734 71.5823 33.4115 71.5685 32.6309C71.5546 31.8504 71.6695 31.184 71.9131 30.6317C72.1636 30.0794 72.5054 29.6555 72.9385 29.3602C73.3784 29.0647 73.8791 28.912 74.4406 28.902C74.9952 28.8922 75.4975 29.0271 75.9477 29.3068C76.3978 29.5865 76.7544 29.9979 77.0175 30.5412C77.2805 31.0845 77.419 31.7463 77.4328 32.5269C77.4467 33.3074 77.3318 33.9738 77.0882 34.5261C76.8445 35.0783 76.5028 35.5022 76.0628 35.7976C75.6229 36.0931 75.1256 36.2457 74.571 36.2556ZM74.5548 35.3415C74.9314 35.3348 75.2582 35.2263 75.5353 35.0159C75.8192 34.8054 76.0363 34.4934 76.1865 34.0798C76.3435 33.666 76.4166 33.1545 76.4058 32.5451C76.395 31.9357 76.3038 31.4271 76.1322 31.0192C75.9674 30.6112 75.7394 30.307 75.4482 30.1067C75.1638 29.9063 74.8334 29.8094 74.4568 29.8161C74.0802 29.8228 73.75 29.9314 73.466 30.1419C73.1821 30.3524 72.9616 30.6645 72.8046 31.0782C72.6544 31.4918 72.5847 32.0033 72.5955 32.6127C72.6063 33.2221 72.6941 33.7308 72.8589 34.1388C73.0305 34.5467 73.2619 34.8508 73.5531 35.0511C73.8443 35.2514 74.1782 35.3482 74.5548 35.3415Z" fill="#1E1E1E"/>
<path d="M95.2312 42.1824L99.4304 36.3457L101.707 37.9834C102.218 38.3513 102.597 38.7459 102.842 39.167C103.087 39.5882 103.197 40.0216 103.172 40.4673C103.146 40.913 102.982 41.3471 102.678 41.7696C102.374 42.1921 102.015 42.4862 101.6 42.6519C101.19 42.8121 100.746 42.8428 100.268 42.7441C99.791 42.6453 99.2967 42.412 98.7853 42.0441L96.9675 40.7363L97.6187 40.6227L96.065 42.7823L95.2312 42.1824ZM99.1334 44.9899L99.173 41.8042L100.065 42.4461L100.042 45.6438L99.1334 44.9899ZM97.5587 40.7061L97.4774 40.0276L99.2701 41.3173C99.8038 41.7013 100.289 41.8773 100.725 41.8453C101.171 41.8118 101.544 41.5866 101.844 41.1697C102.144 40.7528 102.237 40.3304 102.123 39.9025C102.014 39.4786 101.693 39.0747 101.16 38.6908L99.3671 37.401L100.042 37.2541L97.5587 40.7061Z" fill="#1E1E1E"/>
<path d="M103.828 49.8378C103.505 49.4472 103.252 49.0169 103.068 48.5471C102.888 48.0825 102.806 47.649 102.82 47.2466L103.746 47.094C103.725 47.4227 103.781 47.7806 103.914 48.1679C104.047 48.5551 104.254 48.9176 104.533 49.2555C104.873 49.6672 105.224 49.9146 105.586 49.9977C105.957 50.0817 106.293 49.9993 106.594 49.7507C106.885 49.5108 107.025 49.208 107.016 48.8423C107.017 48.4776 106.821 48.0577 106.428 47.5826L106.062 47.1391L106.616 46.6811L110.004 46.6532L109.779 47.0257L107.273 43.993L107.962 43.4237L110.985 47.0821L110.447 47.527L107.073 47.5563L106.978 46.9417L107.194 47.203C107.748 47.8735 108.012 48.4993 107.986 49.0805C107.964 49.667 107.721 50.1521 107.256 50.536C106.945 50.7934 106.597 50.9524 106.212 51.013C105.826 51.0736 105.429 51.0115 105.018 50.8265C104.617 50.6425 104.221 50.3129 103.828 49.8378Z" fill="#1E1E1E"/>
<path d="M108.886 57.2302L114.984 54.2672L114.743 54.8754L113.841 53.0184L114.644 52.6278L115.798 55.0022L109.331 58.1449L108.886 57.2302Z" fill="#1E1E1E"/>
<path d="M112.946 70.1048L120.124 69.6856L120.3 72.7106C120.345 73.4763 120.234 74.1585 119.967 74.7571C119.701 75.3626 119.307 75.8418 118.785 76.1946C118.265 76.5543 117.649 76.7549 116.938 76.7964C116.227 76.8379 115.592 76.7104 115.032 76.4138C114.474 76.124 114.027 75.6939 113.691 75.1236C113.357 74.5601 113.167 73.8955 113.122 73.1298L112.946 70.1048ZM113.898 71.0781L114.011 73.0162C114.046 73.6109 114.188 74.1171 114.439 74.5346C114.69 74.9589 115.024 75.279 115.442 75.4947C115.866 75.71 116.345 75.8021 116.878 75.771C117.418 75.7394 117.883 75.5922 118.272 75.3294C118.661 75.0666 118.956 74.7098 119.156 74.2591C119.357 73.8153 119.439 73.296 119.405 72.7012L119.291 70.7631L113.898 71.0781Z" fill="#1E1E1E"/>
<path d="M112.225 83.0427C112.34 82.4932 112.585 82.0303 112.958 81.654C113.33 81.2843 113.81 81.0286 114.4 80.8867C114.988 80.7516 115.664 80.7644 116.428 80.9251C117.192 81.0859 117.816 81.3466 118.3 81.7074C118.783 82.0748 119.119 82.5026 119.311 82.9907C119.5 83.4855 119.538 84.0077 119.422 84.5572C119.308 85.1 119.064 85.5595 118.691 85.9359C118.318 86.3122 117.837 86.568 117.249 86.7031C116.661 86.8383 115.984 86.8255 115.221 86.6647C114.457 86.504 113.833 86.2432 113.349 85.8825C112.865 85.5217 112.528 85.0939 112.338 84.5991C112.148 84.1043 112.111 83.5855 112.225 83.0427ZM113.119 83.231C113.042 83.5996 113.075 83.9424 113.218 84.2594C113.36 84.5832 113.615 84.8644 113.985 85.1031C114.353 85.3486 114.836 85.534 115.432 85.6595C116.028 85.785 116.545 85.8097 116.981 85.7334C117.415 85.6639 117.762 85.5096 118.023 85.2704C118.282 85.038 118.45 84.7375 118.527 84.3689C118.605 84.0003 118.573 83.6542 118.431 83.3304C118.289 83.0067 118.034 82.7221 117.666 82.4767C117.296 82.2379 116.813 82.0558 116.217 81.9303C115.62 81.8048 115.105 81.7768 114.67 81.8464C114.234 81.9226 113.886 82.0803 113.626 82.3194C113.366 82.5586 113.197 82.8624 113.119 83.231Z" fill="#1E1E1E"/>
<path d="M105.523 97.9287C105.841 97.4827 106.208 97.1219 106.623 96.8463C107.04 96.5802 107.482 96.4032 107.949 96.3154C108.417 96.2371 108.887 96.2492 109.361 96.3517C109.835 96.4541 110.289 96.6604 110.724 96.9707C111.159 97.2809 111.502 97.6433 111.753 98.0579C112.004 98.4726 112.163 98.9147 112.232 99.3843C112.306 99.8579 112.283 100.333 112.161 100.81C112.041 101.297 111.822 101.763 111.504 102.209C111.182 102.66 110.808 103.02 110.381 103.288C109.956 103.565 109.498 103.73 109.006 103.783L108.867 102.863C109.26 102.807 109.612 102.68 109.922 102.481C110.238 102.285 110.509 102.029 110.736 101.711C110.971 101.382 111.134 101.036 111.225 100.672C111.312 100.314 111.329 99.9599 111.276 99.6105C111.222 99.2611 111.098 98.9284 110.903 98.6124C110.709 98.3061 110.451 98.0375 110.127 97.8068C109.804 97.5762 109.463 97.4171 109.105 97.3297C108.748 97.2519 108.396 97.2445 108.048 97.3076C107.7 97.3707 107.371 97.5018 107.061 97.701C106.747 97.9057 106.472 98.1726 106.237 98.5015C106.011 98.8192 105.854 99.1572 105.766 99.5155C105.684 99.8777 105.684 100.256 105.764 100.65L104.85 100.818C104.74 100.335 104.744 99.846 104.862 99.35C104.977 98.8595 105.197 98.3858 105.523 97.9287Z" fill="#1E1E1E"/>
<path d="M98.7805 104.983C99.2153 104.627 99.696 104.42 100.223 104.361C100.744 104.306 101.279 104.409 101.827 104.668C102.37 104.932 102.888 105.366 103.383 105.97C103.877 106.575 104.199 107.169 104.35 107.754C104.495 108.343 104.489 108.887 104.332 109.387C104.169 109.892 103.87 110.321 103.436 110.677C103.006 111.028 102.528 111.233 102.002 111.292C101.475 111.351 100.94 111.249 100.397 110.985C99.8543 110.721 99.3357 110.287 98.8416 109.683C98.3475 109.078 98.0252 108.484 97.8746 107.899C97.724 107.315 97.73 106.77 97.8925 106.266C98.0551 105.762 98.3511 105.334 98.7805 104.983ZM99.3592 105.691C99.0676 105.929 98.8781 106.217 98.7908 106.553C98.6981 106.894 98.7209 107.274 98.859 107.692C98.9918 108.114 99.2511 108.561 99.6369 109.033C100.023 109.504 100.409 109.847 100.796 110.062C101.178 110.28 101.546 110.378 101.899 110.355C102.246 110.336 102.565 110.207 102.857 109.969C103.149 109.731 103.341 109.441 103.433 109.1C103.526 108.759 103.506 108.377 103.373 107.955C103.235 107.537 102.973 107.092 102.587 106.621C102.201 106.149 101.818 105.804 101.436 105.585C101.048 105.371 100.678 105.276 100.326 105.299C99.9729 105.322 99.6508 105.452 99.3592 105.691Z" fill="#1E1E1E"/>
<path d="M92.5546 109.3L95.4841 115.867L92.7168 117.101C92.0163 117.414 91.339 117.551 90.6846 117.513C90.024 117.478 89.4366 117.279 88.9222 116.916C88.4016 116.556 87.9963 116.05 87.7061 115.4C87.416 114.749 87.3108 114.11 87.3905 113.482C87.4641 112.857 87.7084 112.287 88.1234 111.772C88.5323 111.26 89.0869 110.847 89.7873 110.535L92.5546 109.3ZM91.9806 110.535L90.2077 111.326C89.6636 111.568 89.2406 111.881 88.9387 112.263C88.6305 112.648 88.4493 113.074 88.395 113.54C88.3435 114.013 88.4266 114.494 88.6442 114.981C88.8646 115.475 89.1665 115.858 89.55 116.129C89.9335 116.401 90.3714 116.55 90.8637 116.578C91.3498 116.609 91.8649 116.503 92.409 116.26L94.1819 115.469L91.9806 110.535Z" fill="#1E1E1E"/>
<path d="M81.8886 112.997L83.0504 119.676L82.5325 119.276L84.5666 118.922L84.7198 119.803L82.1189 120.255L80.8867 113.171L81.8886 112.997Z" fill="#1E1E1E"/>
<path d="M70.8351 113.478C71.3882 113.519 71.8902 113.646 72.3412 113.859C72.7917 114.078 73.1753 114.365 73.492 114.718C73.8082 115.079 74.0452 115.488 74.203 115.946C74.3608 116.404 74.4196 116.9 74.3795 117.432C74.3394 117.965 74.207 118.446 73.9824 118.876C73.7577 119.305 73.4624 119.671 73.0963 119.973C72.7228 120.281 72.2972 120.507 71.8195 120.649C71.3413 120.799 70.8222 120.852 70.2622 120.81C69.6955 120.767 69.1834 120.636 68.7261 120.416C68.2688 120.196 67.8902 119.89 67.5902 119.496L68.2731 118.909C68.5451 119.218 68.8504 119.45 69.1889 119.606C69.52 119.769 69.887 119.865 70.2899 119.895C70.6996 119.926 71.0872 119.887 71.4525 119.777C71.8111 119.667 72.1294 119.498 72.4074 119.272C72.6785 119.045 72.8987 118.766 73.0678 118.436C73.2296 118.112 73.3254 117.751 73.3552 117.355C73.3845 116.966 73.3437 116.596 73.2329 116.244C73.1147 115.898 72.9388 115.59 72.7051 115.318C72.4642 115.053 72.1747 114.839 71.8367 114.676C71.4988 114.513 71.1249 114.416 70.7152 114.385C70.3328 114.357 69.9631 114.387 69.6061 114.477C69.2417 114.573 68.8988 114.75 68.5773 115.007L68.052 114.185C68.4298 113.911 68.8635 113.714 69.3534 113.593C69.8358 113.478 70.3297 113.44 70.8351 113.478ZM69.0253 114.392L68.8248 117.055L67.8414 116.981L68.052 114.185L69.0253 114.392Z" fill="#1E1E1E"/>
<path d="M61.3388 111.367C61.868 111.555 62.2943 111.859 62.6177 112.279C62.9346 112.696 63.124 113.207 63.1861 113.81C63.2418 114.411 63.1391 115.079 62.8781 115.815C62.6171 116.551 62.2756 117.134 61.8536 117.566C61.4252 117.995 60.9564 118.272 60.4472 118.397C59.9316 118.519 59.4091 118.486 58.8799 118.299C58.3571 118.113 57.9341 117.81 57.6107 117.391C57.2874 116.971 57.0979 116.46 57.0423 115.859C56.9866 115.258 57.0893 114.59 57.3503 113.854C57.6113 113.118 57.9528 112.535 58.3748 112.103C58.7967 111.671 59.2655 111.395 59.7812 111.272C60.2968 111.15 60.8161 111.182 61.3388 111.367ZM61.0332 112.229C60.6782 112.103 60.3341 112.09 60.0008 112.189C59.661 112.287 59.3483 112.503 59.0625 112.837C58.7702 113.17 58.5222 113.623 58.3184 114.197C58.1146 114.772 58.0215 115.28 58.0391 115.722C58.0501 116.162 58.1568 116.527 58.3592 116.817C58.5552 117.104 58.8306 117.311 59.1856 117.437C59.5405 117.563 59.8879 117.577 60.2276 117.48C60.5674 117.382 60.8834 117.167 61.1756 116.835C61.4614 116.5 61.7062 116.046 61.91 115.472C62.1138 114.897 62.2101 114.39 62.199 113.95C62.1815 113.508 62.0716 113.142 61.8692 112.852C61.6668 112.562 61.3881 112.355 61.0332 112.229Z" fill="#1E1E1E"/>
<defs>
<filter id="filter0_b_2029_3118" x="17.1921" y="17.6128" width="114.141" height="114.141" filterUnits="userSpaceOnUse" color-interpolation-filters="sRGB">
<feFlood flood-opacity="0" result="BackgroundImageFix"/>
<feGaussianBlur in="BackgroundImageFix" stdDeviation="1.78333"/>
<feComposite in2="SourceAlpha" operator="in" result="effect1_backgroundBlur_2029_3118"/>
<feBlend mode="normal" in="SourceGraphic" in2="effect1_backgroundBlur_2029_3118" result="shape"/>
</filter>
<filter id="filter1_b_2029_3118" x="3.15879" y="3.57944" width="142.208" height="142.208" filterUnits="userSpaceOnUse" color-interpolation-filters="sRGB">
<feFlood flood-opacity="0" result="BackgroundImageFix"/>
<feGaussianBlur in="BackgroundImageFix" stdDeviation="8.8"/>
<feComposite in2="SourceAlpha" operator="in" result="effect1_backgroundBlur_2029_3118"/>
<feBlend mode="normal" in="SourceGraphic" in2="effect1_backgroundBlur_2029_3118" result="shape"/>
</filter>
</defs>
</svg>
