<svg width="151" height="150" viewBox="0 0 151 150" fill="none" xmlns="http://www.w3.org/2000/svg">
<g filter="url(#filter0_b_2029_3118)">
<g filter="url(#filter1_b_2029_3118)">
<path d="M21.6507 69.947C24.5535 40.5429 50.7438 19.0591 80.1479 21.9619C109.552 24.8647 131.036 51.0551 128.133 80.4592C125.23 109.863 99.0398 131.347 69.6357 128.444C40.2316 125.541 18.7478 99.3511 21.6507 69.947Z" fill="#4B3CFF" fill-opacity="0.1"/>
<path d="M22.538 70.0346C25.3925 41.1206 51.1463 19.9948 80.0603 22.8493C108.974 25.7037 130.1 51.4575 127.246 80.3716C124.391 109.286 98.6374 130.411 69.7233 127.557C40.8093 124.702 19.6835 98.9486 22.538 70.0346Z" stroke="#4B3CFF" stroke-opacity="0.1" stroke-width="1.78333"/>
</g>
<circle cx="74.8916" cy="75.2032" r="32.9917" transform="rotate(5.6381 74.8916 75.2032)" fill="#4B3CFF" fill-opacity="0.05"/>
<circle cx="74.8916" cy="75.2032" r="32.1" transform="rotate(5.6381 74.8916 75.2032)" stroke="#4B3CFF" stroke-opacity="0.1" stroke-width="1.78333"/>
</g>
<path d="M82.8329 62.4213L77.623 65.9576L87.2411 75.2108L87.1223 76.4143L75.8607 83.8088L80.2785 88.2955L87.6525 83.3526L89.0782 68.9112L82.8329 62.4213Z" fill="#4B3CFF"/>
<path d="M70.5978 61.2135L75.0156 65.7002L63.7738 72.8942L63.655 74.0976L73.2533 83.5514L68.0435 87.0877L61.7783 80.7984L63.204 66.3569L70.5978 61.2135Z" fill="#4B3CFF"/>
<path d="M39.8803 94.8919L40.757 99.7615L40.006 100.227L36.0376 97.2712L36.7625 96.8224L40.4039 99.5815L40.0022 99.8302L39.1554 95.3407L39.8803 94.8919Z" fill="#E6E4ED"/>
<path d="M40.071 89.8646L29.8183 89.8394L29.5249 88.9953L39.7776 89.0205L40.071 89.8646Z" fill="#E6E4ED"/>
<path d="M35.4818 82.652L34.6348 82.7495L32.5135 78.6923L32.9829 78.6383L31.8388 83.0713L30.9918 83.1688L32.2718 78.3893L33.1494 78.2883L35.4818 82.652Z" fill="#E6E4ED"/>
<path d="M42.8476 53.9688C42.555 54.432 42.2091 54.8128 41.8099 55.1114C41.4085 55.4005 40.9774 55.602 40.5167 55.7159C40.0538 55.8204 39.583 55.8348 39.1042 55.7592C38.6255 55.6835 38.1604 55.503 37.7088 55.2177C37.2572 54.9324 36.8945 54.5899 36.6206 54.19C36.3467 53.7902 36.1623 53.3577 36.0673 52.8927C35.9665 52.424 35.9634 51.9482 36.0579 51.4652C36.1503 50.9728 36.3428 50.495 36.6354 50.0318C36.9317 49.5629 37.2852 49.1828 37.696 48.8916C38.1047 48.5909 38.5532 48.4003 39.0414 48.3199L39.2318 49.23C38.8424 49.308 38.4983 49.4551 38.1996 49.6714C37.8952 49.8841 37.6387 50.1554 37.4302 50.4854C37.2144 50.827 37.0712 51.182 37.0004 51.5504C36.9333 51.913 36.9363 52.2672 37.0094 52.6131C37.0825 52.959 37.2253 53.2842 37.438 53.5886C37.6485 53.8836 37.9217 54.1372 38.2575 54.3493C38.5932 54.5615 38.9424 54.7011 39.3051 54.7682C39.6655 54.8258 40.0177 54.8134 40.3614 54.7309C40.7051 54.6483 41.0264 54.4989 41.325 54.2826C41.6273 54.0605 41.8864 53.7787 42.1022 53.4371C42.3107 53.1071 42.4485 52.7608 42.5156 52.3982C42.5769 52.0319 42.5562 51.6544 42.4536 51.2655L43.3573 51.0467C43.4943 51.5221 43.5177 52.0107 43.4275 52.5126C43.3408 53.0087 43.1476 53.4941 42.8476 53.9688Z" fill="#E6E4ED"/>
<path d="M49.1845 46.669C48.4936 47.3136 47.7658 47.6227 47.0012 47.5963C46.2366 47.5698 45.4992 47.176 44.7891 46.4149L42.0001 43.4258L42.7512 42.725L45.5121 45.6841C46.0587 46.27 46.5858 46.5789 47.0935 46.611C47.6061 46.6385 48.0977 46.4326 48.5684 45.9935C49.044 45.5497 49.2834 45.0735 49.2865 44.5649C49.2946 44.0515 49.0254 43.502 48.4788 42.9162L45.7178 39.9571L46.4463 39.2773L49.2353 42.2665C49.9454 43.0275 50.2872 43.7904 50.2607 44.555C50.2392 45.3149 49.8805 46.0196 49.1845 46.669Z" fill="#E6E4ED"/>
<path d="M54.6772 42.3956L51.2666 36.0656L53.7353 34.7355C54.2899 34.4367 54.8102 34.2691 55.2963 34.2328C55.7824 34.1965 56.2202 34.2873 56.6099 34.5051C56.9995 34.723 57.3178 35.0611 57.5646 35.5192C57.8115 35.9774 57.9188 36.4291 57.8864 36.8744C57.8508 37.3136 57.6842 37.7262 57.3865 38.1122C57.0889 38.4981 56.6627 38.8405 56.1081 39.1394L54.1368 40.2015L54.3196 39.5663L55.5815 41.9084L54.6772 42.3956ZM58.9093 40.1154L56.0621 38.6858L57.0296 38.1644L59.8949 39.5843L58.9093 40.1154ZM54.3683 39.6567L53.7226 39.4329L55.6668 38.3853C56.2456 38.0735 56.616 37.7144 56.7783 37.3081C56.9433 36.8925 56.904 36.4586 56.6603 36.0065C56.4167 35.5543 56.0776 35.2859 55.643 35.2011C55.2144 35.1131 54.7108 35.225 54.132 35.5368L52.1878 36.5844L52.3511 35.913L54.3683 39.6567Z" fill="#E6E4ED"/>
<path d="M65.4551 37.9863C64.9637 38.1101 64.4664 38.1542 63.963 38.1185C63.4664 38.0812 63.0393 37.9699 62.6819 37.7846L62.9418 36.8822C63.2295 37.0428 63.5768 37.146 63.9838 37.1917C64.3908 37.2375 64.8034 37.2077 65.2218 37.1023C65.753 36.9684 66.133 36.7526 66.3616 36.4549C66.5903 36.1572 66.6569 35.8191 66.5616 35.4406C66.4963 35.1816 66.3763 34.9717 66.2017 34.811C66.027 34.6502 65.771 34.5593 65.4338 34.5383C65.1016 34.509 64.6666 34.5622 64.1287 34.6977L62.5449 35.0967L61.995 31.3582L65.9294 30.367L66.1478 31.2335L62.5819 32.132L62.9769 31.5134L63.4133 34.4648L62.7748 34.1172L64.1195 33.7784C64.8168 33.6027 65.4005 33.551 65.8706 33.6232C66.3408 33.6954 66.7123 33.8667 66.9852 34.1369C67.2564 34.4005 67.4439 34.7381 67.5476 35.1498C67.648 35.5482 67.6437 35.9377 67.5348 36.3183C67.4242 36.6922 67.1981 37.0281 66.8565 37.326C66.5199 37.6156 66.0527 37.8357 65.4551 37.9863Z" fill="#E6E4ED"/>
<path d="M75.1999 36.7754C74.6385 36.7853 74.1327 36.6505 73.6825 36.3708C73.2392 36.091 72.8826 35.6795 72.6127 35.1364C72.3497 34.5931 72.2112 33.9312 72.1974 33.1507C72.1835 32.3702 72.2984 31.7038 72.542 31.1515C72.7925 30.5992 73.1343 30.1753 73.5674 29.88C74.0073 29.5845 74.508 29.4318 75.0695 29.4218C75.6241 29.412 76.1264 29.5469 76.5766 29.8266C77.0267 30.1063 77.3833 30.5177 77.6464 31.061C77.9094 31.6042 78.0479 32.2661 78.0617 33.0467C78.0756 33.8272 77.9607 34.4936 77.7171 35.0458C77.4735 35.5981 77.1317 36.0219 76.6917 36.3174C76.2518 36.6129 75.7545 36.7655 75.1999 36.7754ZM75.1837 35.8613C75.5603 35.8546 75.8871 35.7461 76.1642 35.5357C76.4481 35.3252 76.6652 35.0131 76.8154 34.5995C76.9724 34.1858 77.0455 33.6743 77.0347 33.0649C77.0239 32.4555 76.9327 31.9469 76.7611 31.539C76.5963 31.131 76.3683 30.8268 76.0771 30.6265C75.7927 30.4261 75.4623 30.3292 75.0857 30.3359C74.7091 30.3426 74.3789 30.4512 74.0949 30.6617C73.811 30.8722 73.5905 31.1843 73.4335 31.598C73.2833 32.0116 73.2136 32.5231 73.2244 33.1325C73.2352 33.7418 73.323 34.2505 73.4878 34.6586C73.6594 35.0665 73.8908 35.3706 74.182 35.5709C74.4732 35.7712 74.8071 35.868 75.1837 35.8613Z" fill="#E6E4ED"/>
<path d="M95.8601 42.7022L100.059 36.8654L102.336 38.5032C102.847 38.8711 103.225 39.2656 103.471 39.6868C103.716 40.108 103.826 40.5414 103.801 40.9871C103.775 41.4328 103.611 41.8669 103.307 42.2894C103.003 42.7118 102.643 43.0059 102.229 43.1717C101.818 43.3319 101.375 43.3626 100.897 43.2639C100.42 43.1651 99.9256 42.9318 99.4142 42.5638L97.5964 41.2561L98.2476 41.1425L96.6939 43.302L95.8601 42.7022ZM99.7623 45.5097L99.8019 42.324L100.694 42.9658L100.671 46.1635L99.7623 45.5097ZM98.1876 41.2258L98.1064 40.5473L99.8991 41.8371C100.433 42.221 100.918 42.397 101.354 42.3651C101.8 42.3316 102.173 42.1064 102.473 41.6895C102.773 41.2726 102.866 40.8502 102.752 40.4223C102.643 39.9984 102.322 39.5945 101.789 39.2106L99.996 37.9208L100.671 37.7739L98.1876 41.2258Z" fill="#E6E4ED"/>
<path d="M104.457 50.3576C104.134 49.9669 103.881 49.5367 103.697 49.0668C103.517 48.6023 103.434 48.1688 103.448 47.7664L104.375 47.6137C104.353 47.9425 104.409 48.3004 104.543 48.6876C104.676 49.0749 104.882 49.4374 105.161 49.7753C105.502 50.187 105.853 50.4344 106.214 50.5175C106.586 50.6014 106.922 50.5191 107.223 50.2705C107.513 50.0306 107.654 49.7278 107.645 49.3621C107.646 48.9974 107.45 48.5774 107.057 48.1023L106.691 47.6589L107.245 47.2009L110.633 47.1729L110.408 47.5455L107.902 44.5127L108.591 43.9435L111.614 47.6018L111.075 48.0468L107.702 48.0761L107.607 47.4615L107.823 47.7228C108.377 48.3932 108.641 49.0191 108.615 49.6003C108.593 50.1867 108.35 50.6719 107.885 51.0558C107.574 51.3131 107.225 51.4721 106.84 51.5328C106.455 51.5934 106.057 51.5313 105.647 51.3463C105.246 51.1623 104.849 50.8327 104.457 50.3576Z" fill="#E6E4ED"/>
<path d="M109.515 57.75L115.613 54.7869L115.372 55.3952L114.469 53.5382L115.273 53.1476L116.427 55.522L109.96 58.6647L109.515 57.75Z" fill="#E6E4ED"/>
<path d="M113.575 70.6245L120.753 70.2054L120.929 73.2304C120.974 73.9961 120.863 74.6782 120.596 75.2769C120.33 75.8824 119.936 76.3615 119.414 76.7144C118.893 77.0741 118.278 77.2747 117.567 77.3162C116.856 77.3577 116.22 77.2302 115.661 76.9335C115.102 76.6438 114.655 76.2137 114.32 75.6434C113.986 75.0798 113.796 74.4153 113.751 73.6496L113.575 70.6245ZM114.527 71.5979L114.64 73.536C114.674 74.1307 114.817 74.6369 115.068 75.0544C115.319 75.4787 115.653 75.7987 116.071 76.0145C116.495 76.2298 116.973 76.3219 117.507 76.2907C118.047 76.2592 118.511 76.112 118.901 75.8492C119.29 75.5864 119.585 75.2296 119.785 74.7789C119.985 74.3351 120.068 73.8157 120.034 73.221L119.92 71.2829L114.527 71.5979Z" fill="#E6E4ED"/>
<path d="M112.853 83.5625C112.969 83.013 113.213 82.5501 113.586 82.1737C113.958 81.8041 114.439 81.5483 115.028 81.4065C115.617 81.2714 116.293 81.2842 117.057 81.4449C117.821 81.6057 118.445 81.8664 118.928 82.2272C119.411 82.5946 119.748 83.0224 119.939 83.5105C120.129 84.0053 120.166 84.5274 120.05 85.0769C119.936 85.6197 119.692 86.0793 119.319 86.4557C118.946 86.832 118.466 87.0878 117.877 87.2229C117.289 87.358 116.613 87.3452 115.849 87.1845C115.085 87.0237 114.461 86.763 113.977 86.4022C113.493 86.0415 113.156 85.6137 112.967 85.1189C112.777 84.6241 112.739 84.1053 112.853 83.5625ZM113.748 83.7508C113.67 84.1193 113.703 84.4621 113.846 84.7792C113.988 85.1029 114.244 85.3842 114.614 85.6229C114.982 85.8683 115.464 86.0538 116.06 86.1793C116.657 86.3048 117.173 86.3294 117.609 86.2532C118.043 86.1837 118.391 86.0294 118.651 85.7902C118.91 85.5578 119.078 85.2573 119.156 84.8887C119.233 84.5201 119.201 84.174 119.059 83.8502C118.917 83.5265 118.662 83.2419 118.294 82.9964C117.925 82.7577 117.442 82.5756 116.845 82.4501C116.249 82.3246 115.733 82.2966 115.299 82.3661C114.863 82.4424 114.515 82.6 114.255 82.8392C113.994 83.0783 113.825 83.3822 113.748 83.7508Z" fill="#E6E4ED"/>
<path d="M106.152 98.4484C106.47 98.0025 106.837 97.6417 107.252 97.366C107.669 97.0999 108.111 96.923 108.577 96.8352C109.046 96.7569 109.516 96.769 109.99 96.8714C110.464 96.9739 110.918 97.1802 111.353 97.4904C111.788 97.8007 112.131 98.1631 112.382 98.5777C112.633 98.9923 112.792 99.4345 112.861 99.9041C112.935 100.378 112.912 100.853 112.79 101.33C112.67 101.816 112.451 102.283 112.133 102.728C111.811 103.18 111.436 103.54 111.01 103.807C110.585 104.085 110.127 104.25 109.635 104.302L109.496 103.383C109.889 103.327 110.241 103.2 110.551 103C110.867 102.805 111.138 102.549 111.365 102.231C111.6 101.902 111.763 101.556 111.854 101.192C111.941 100.834 111.958 100.48 111.905 100.13C111.851 99.7808 111.727 99.4482 111.532 99.1322C111.338 98.8258 111.08 98.5573 110.756 98.3266C110.433 98.0959 110.092 97.9369 109.734 97.8495C109.377 97.7717 109.025 97.7643 108.677 97.8274C108.329 97.8905 108 98.0216 107.69 98.2208C107.375 98.4255 107.101 98.6923 106.866 99.0212C106.64 99.339 106.483 99.677 106.395 100.035C106.313 100.398 106.313 100.776 106.393 101.17L105.479 101.337C105.369 100.855 105.373 100.366 105.491 99.8698C105.606 99.3793 105.826 98.9056 106.152 98.4484Z" fill="#E6E4ED"/>
<path d="M99.4092 105.503C99.8439 105.147 100.325 104.94 100.851 104.881C101.373 104.826 101.907 104.929 102.456 105.188C102.999 105.452 103.517 105.886 104.011 106.49C104.505 107.095 104.828 107.689 104.978 108.274C105.124 108.862 105.118 109.407 104.96 109.907C104.798 110.411 104.499 110.841 104.064 111.197C103.635 111.548 103.157 111.753 102.63 111.812C102.104 111.871 101.569 111.769 101.026 111.505C100.483 111.241 99.9644 110.807 99.4703 110.203C98.9762 109.598 98.6538 109.004 98.5032 108.419C98.3527 107.835 98.3586 107.29 98.5212 106.786C98.6838 106.281 98.9798 105.854 99.4092 105.503ZM99.9878 106.21C99.6963 106.449 99.5068 106.736 99.4194 107.073C99.3268 107.414 99.3495 107.794 99.4877 108.211C99.6205 108.634 99.8798 109.081 100.266 109.552C100.651 110.024 101.038 110.367 101.425 110.581C101.807 110.8 102.174 110.897 102.527 110.874C102.875 110.856 103.194 110.727 103.486 110.489C103.777 110.25 103.969 109.961 104.062 109.62C104.155 109.279 104.135 108.897 104.002 108.475C103.864 108.057 103.602 107.612 103.216 107.14C102.83 106.668 102.446 106.323 102.064 106.105C101.677 105.891 101.307 105.795 100.954 105.818C100.602 105.841 100.279 105.972 99.9878 106.21Z" fill="#E6E4ED"/>
<path d="M93.183 109.82L96.1125 116.386L93.3452 117.621C92.6448 117.933 91.9674 118.071 91.313 118.033C90.6525 117.997 90.065 117.798 89.5507 117.435C89.0301 117.075 88.6247 116.57 88.3345 115.92C88.0444 115.269 87.9392 114.63 88.019 114.002C88.0925 113.377 88.3368 112.807 88.7519 112.292C89.1607 111.779 89.7153 111.367 90.4157 111.054L93.183 109.82ZM92.6091 111.055L90.8361 111.846C90.292 112.088 89.869 112.401 89.5671 112.783C89.2589 113.168 89.0777 113.594 89.0234 114.06C88.9719 114.533 89.055 115.013 89.2726 115.501C89.493 115.995 89.795 116.378 90.1785 116.649C90.5619 116.921 90.9999 117.07 91.4922 117.098C91.9782 117.129 92.4933 117.023 93.0374 116.78L94.8103 115.989L92.6091 111.055Z" fill="#E6E4ED"/>
<path d="M82.5175 113.517L83.6793 120.196L83.1614 119.796L85.1955 119.442L85.3487 120.323L82.7478 120.775L81.5156 113.691L82.5175 113.517Z" fill="#E6E4ED"/>
<path d="M71.464 113.997C72.0171 114.039 72.5191 114.166 72.9701 114.379C73.4206 114.598 73.8042 114.885 74.1209 115.238C74.4371 115.598 74.6741 116.008 74.8319 116.466C74.9897 116.924 75.0485 117.42 75.0084 117.952C74.9683 118.485 74.8359 118.966 74.6113 119.395C74.3867 119.825 74.0913 120.191 73.7252 120.493C73.3517 120.801 72.9261 121.026 72.4484 121.169C71.9702 121.318 71.4511 121.372 70.8911 121.33C70.3244 121.287 69.8123 121.156 69.355 120.936C68.8978 120.716 68.5191 120.41 68.2191 120.016L68.902 119.429C69.174 119.738 69.4793 119.97 69.8178 120.126C70.1489 120.289 70.5159 120.385 70.9188 120.415C71.3285 120.446 71.7161 120.407 72.0815 120.297C72.44 120.186 72.7583 120.018 73.0363 119.792C73.3074 119.565 73.5276 119.286 73.6967 118.956C73.8585 118.631 73.9543 118.271 73.9841 117.875C74.0134 117.486 73.9727 117.115 73.8618 116.764C73.7436 116.418 73.5677 116.11 73.334 115.838C73.0931 115.573 72.8036 115.359 72.4656 115.196C72.1277 115.033 71.7538 114.936 71.3441 114.905C70.9617 114.876 70.592 114.907 70.235 114.997C69.8706 115.093 69.5277 115.27 69.2062 115.527L68.6809 114.705C69.0587 114.431 69.4924 114.234 69.9823 114.113C70.4648 113.998 70.9587 113.959 71.464 113.997ZM69.6542 114.912L69.4537 117.575L68.4703 117.501L68.6809 114.705L69.6542 114.912Z" fill="#E6E4ED"/>
<path d="M61.9675 111.887C62.4967 112.075 62.923 112.378 63.2463 112.798C63.5632 113.216 63.7527 113.726 63.8148 114.33C63.8704 114.931 63.7677 115.599 63.5067 116.335C63.2457 117.071 62.9043 117.654 62.4823 118.086C62.0539 118.515 61.5851 118.792 61.0759 118.917C60.5602 119.039 60.0378 119.006 59.5086 118.818C58.9858 118.633 58.5628 118.33 58.2394 117.91C57.9161 117.49 57.7266 116.98 57.6709 116.379C57.6153 115.778 57.718 115.11 57.979 114.374C58.24 113.638 58.5815 113.054 59.0034 112.623C59.4254 112.191 59.8942 111.914 60.4098 111.792C60.9255 111.67 61.4447 111.701 61.9675 111.887ZM61.6618 112.748C61.3069 112.623 60.9627 112.609 60.6294 112.709C60.2897 112.807 59.9769 113.023 59.6911 113.357C59.3989 113.69 59.1508 114.143 58.9471 114.717C58.7433 115.292 58.6502 115.8 58.6677 116.242C58.6788 116.682 58.7855 117.047 58.9879 117.337C59.1838 117.624 59.4593 117.831 59.8142 117.957C60.1692 118.083 60.5165 118.097 60.8563 117.999C61.196 117.902 61.512 117.687 61.8043 117.355C62.0901 117.02 62.3349 116.566 62.5387 115.991C62.7424 115.417 62.8388 114.91 62.8277 114.47C62.8102 114.028 62.7002 113.662 62.4978 113.372C62.2955 113.082 62.0168 112.874 61.6618 112.748Z" fill="#E6E4ED"/>
<defs>
<filter id="filter0_b_2029_3118" x="17.821" y="18.1326" width="114.141" height="114.141" filterUnits="userSpaceOnUse" color-interpolation-filters="sRGB">
<feFlood flood-opacity="0" result="BackgroundImageFix"/>
<feGaussianBlur in="BackgroundImageFix" stdDeviation="1.78333"/>
<feComposite in2="SourceAlpha" operator="in" result="effect1_backgroundBlur_2029_3118"/>
<feBlend mode="normal" in="SourceGraphic" in2="effect1_backgroundBlur_2029_3118" result="shape"/>
</filter>
<filter id="filter1_b_2029_3118" x="3.78769" y="4.09922" width="142.208" height="142.208" filterUnits="userSpaceOnUse" color-interpolation-filters="sRGB">
<feFlood flood-opacity="0" result="BackgroundImageFix"/>
<feGaussianBlur in="BackgroundImageFix" stdDeviation="8.8"/>
<feComposite in2="SourceAlpha" operator="in" result="effect1_backgroundBlur_2029_3118"/>
<feBlend mode="normal" in="SourceGraphic" in2="effect1_backgroundBlur_2029_3118" result="shape"/>
</filter>
</defs>
</svg>
